G04 #@! TF.GenerationSoftware,KiCad,Pcbnew,10.0.4*
G04 #@! TF.CreationDate,2026-07-14T09:36:39+03:00*
G04 #@! TF.ProjectId,pcb,7063622e-6b69-4636-9164-5f7063625858,rev?*
G04 #@! TF.SameCoordinates,Original*
G04 #@! TF.FileFunction,Legend,Top*
G04 #@! TF.FilePolarity,Positive*
%FSLAX46Y46*%
G04 Gerber Fmt 4.6, Leading zero omitted, Abs format (unit mm)*
G04 Created by KiCad (PCBNEW 10.0.4) date 2026-07-14 09:36:39*
%MOMM*%
%LPD*%
G01*
G04 APERTURE LIST*
%ADD10C,0.074600*%
%ADD11C,0.150000*%
%ADD12C,0.100000*%
%ADD13C,0.120000*%
G04 APERTURE END LIST*
D10*
G36*
X110227099Y-68518038D02*
G01*
X110227099Y-68587846D01*
X109891305Y-69348351D01*
X109625915Y-69348351D01*
X109625915Y-69288042D01*
X109962958Y-68518038D01*
X110227099Y-68518038D01*
G37*
G36*
X109646543Y-68518038D02*
G01*
X109910087Y-68518038D01*
X109879743Y-68587195D01*
X109830354Y-68599869D01*
X109785019Y-68624704D01*
X109752796Y-68653747D01*
X109727981Y-68690041D01*
X109710325Y-68734899D01*
X109704325Y-68751840D01*
X109698166Y-68760900D01*
X109689723Y-68766229D01*
X109677538Y-68768174D01*
X109660334Y-68764250D01*
X109650384Y-68753313D01*
X109646543Y-68732782D01*
X109646543Y-68518038D01*
G37*
G36*
X110227099Y-69348351D02*
G01*
X109942928Y-69348351D01*
X109970232Y-69287336D01*
X110039058Y-69266546D01*
X110078310Y-69246461D01*
X110104408Y-69224514D01*
X110124450Y-69200104D01*
X110141179Y-69170138D01*
X110161525Y-69121339D01*
X110175748Y-69094849D01*
X110183789Y-69089650D01*
X110194910Y-69087792D01*
X110209030Y-69090651D01*
X110218903Y-69098812D01*
X110224820Y-69111359D01*
X110227099Y-69130513D01*
X110227099Y-69348351D01*
G37*
G36*
X110633787Y-68518038D02*
G01*
X110633787Y-69348351D01*
X110363512Y-69348351D01*
X110347716Y-69348351D01*
X110327429Y-69346069D01*
X110314006Y-69340154D01*
X110305173Y-69330248D01*
X110302173Y-69316704D01*
X110304937Y-69301804D01*
X110312758Y-69291175D01*
X110326491Y-69283808D01*
X110349833Y-69275611D01*
X110356890Y-69268609D01*
X110362060Y-69257143D01*
X110364164Y-69237559D01*
X110364164Y-68628450D01*
X110362063Y-68608961D01*
X110356890Y-68597508D01*
X110349833Y-68590560D01*
X110326491Y-68582363D01*
X110312749Y-68575002D01*
X110304932Y-68564405D01*
X110302173Y-68549577D01*
X110305172Y-68536089D01*
X110314006Y-68526235D01*
X110327429Y-68520320D01*
X110347716Y-68518038D01*
X110363512Y-68518038D01*
X110633787Y-68518038D01*
G37*
G36*
X110687799Y-68518038D02*
G01*
X110932561Y-68518038D01*
X110932561Y-68732782D01*
X110930469Y-68749764D01*
X110925233Y-68759815D01*
X110916378Y-68765883D01*
X110902217Y-68768174D01*
X110890000Y-68766630D01*
X110882729Y-68762746D01*
X110871221Y-68740327D01*
X110852542Y-68695495D01*
X110829900Y-68660314D01*
X110803476Y-68633227D01*
X110771936Y-68612495D01*
X110733837Y-68597631D01*
X110687799Y-68589040D01*
X110687799Y-68518038D01*
G37*
G36*
X110684813Y-68960553D02*
G01*
X110684813Y-68889877D01*
X110716868Y-68871491D01*
X110737034Y-68853561D01*
X110751339Y-68831499D01*
X110761949Y-68801124D01*
X110768126Y-68780592D01*
X110774652Y-68769857D01*
X110783914Y-68763508D01*
X110797125Y-68761226D01*
X110813877Y-68765011D01*
X110823886Y-68775611D01*
X110826734Y-68785488D01*
X110828120Y-68809538D01*
X110828120Y-69041489D01*
X110826157Y-69067359D01*
X110821715Y-69080464D01*
X110813192Y-69088333D01*
X110798373Y-69091266D01*
X110785665Y-69089046D01*
X110776497Y-69082798D01*
X110769867Y-69072528D01*
X110763741Y-69054354D01*
X110750478Y-69015876D01*
X110734265Y-68990246D01*
X110712527Y-68971721D01*
X110684813Y-68960553D01*
G37*
G36*
X110688450Y-69348351D02*
G01*
X110688450Y-69282451D01*
X110726018Y-69274747D01*
X110753698Y-69265406D01*
X110778921Y-69251937D01*
X110805647Y-69231805D01*
X110829591Y-69208288D01*
X110847228Y-69185122D01*
X110861612Y-69158731D01*
X110876704Y-69121339D01*
X110884191Y-69103748D01*
X110890654Y-69094849D01*
X110899045Y-69089662D01*
X110910739Y-69087792D01*
X110925696Y-69090557D01*
X110934406Y-69097889D01*
X110939072Y-69109999D01*
X110941083Y-69132956D01*
X110941083Y-69348351D01*
X110688450Y-69348351D01*
G37*
G36*
X111364219Y-68518038D02*
G01*
X111364219Y-69232673D01*
X111366842Y-69254277D01*
X111373339Y-69266763D01*
X111382404Y-69274363D01*
X111410360Y-69281962D01*
X111427081Y-69289046D01*
X111436292Y-69299885D01*
X111439510Y-69315455D01*
X111435728Y-69329497D01*
X111423713Y-69341022D01*
X111410085Y-69346173D01*
X111385444Y-69348351D01*
X111364816Y-69348351D01*
X111093944Y-69348351D01*
X111078148Y-69348351D01*
X111057861Y-69346069D01*
X111044438Y-69340154D01*
X111035604Y-69330248D01*
X111032604Y-69316704D01*
X111035369Y-69301804D01*
X111043189Y-69291175D01*
X111056923Y-69283808D01*
X111080265Y-69275611D01*
X111087322Y-69268609D01*
X111092492Y-69257143D01*
X111094595Y-69237559D01*
X111094595Y-68628450D01*
X111092495Y-68608961D01*
X111087322Y-68597508D01*
X111080265Y-68590560D01*
X111056923Y-68582363D01*
X111043180Y-68575002D01*
X111035364Y-68564405D01*
X111032604Y-68549577D01*
X111035603Y-68536089D01*
X111044438Y-68526235D01*
X111057861Y-68520320D01*
X111078148Y-68518038D01*
X111093944Y-68518038D01*
X111364219Y-68518038D01*
G37*
G36*
X111550627Y-68941065D02*
G01*
X111603121Y-68950737D01*
X111636557Y-68959956D01*
X111665373Y-68972209D01*
X111690948Y-68987966D01*
X111713659Y-69008843D01*
X111730086Y-69033021D01*
X111740355Y-69059982D01*
X111743766Y-69088389D01*
X111743766Y-69214434D01*
X111747399Y-69229515D01*
X111756522Y-69233705D01*
X111764665Y-69230936D01*
X111774110Y-69220080D01*
X111790523Y-69203543D01*
X111805105Y-69198964D01*
X111814891Y-69201456D01*
X111825733Y-69210037D01*
X111833675Y-69221565D01*
X111836047Y-69232185D01*
X111832187Y-69251702D01*
X111818133Y-69278651D01*
X111798151Y-69304415D01*
X111773513Y-69327560D01*
X111747364Y-69345106D01*
X111719447Y-69356764D01*
X111688867Y-69363329D01*
X111650833Y-69365721D01*
X111599332Y-69360127D01*
X111558441Y-69344532D01*
X111525765Y-69319526D01*
X111501548Y-69286100D01*
X111486311Y-69243976D01*
X111480819Y-69190658D01*
X111480819Y-69088389D01*
X111480222Y-69048817D01*
X111474361Y-69025897D01*
X111463231Y-69006802D01*
X111442374Y-68990179D01*
X111412802Y-68981832D01*
X111412802Y-68916692D01*
X111442672Y-68909314D01*
X111459540Y-68899647D01*
X111469909Y-68887758D01*
X111476259Y-68874677D01*
X111480819Y-68833259D01*
X111480819Y-68672310D01*
X111476625Y-68637148D01*
X111465945Y-68615205D01*
X111446908Y-68599391D01*
X111412205Y-68585458D01*
X111412205Y-68518038D01*
X111428002Y-68518038D01*
X111542756Y-68522924D01*
X111588442Y-68531133D01*
X111630116Y-68546503D01*
X111668475Y-68569118D01*
X111703292Y-68600404D01*
X111727747Y-68636890D01*
X111742743Y-68679591D01*
X111748000Y-68730176D01*
X111741758Y-68785098D01*
X111723907Y-68831233D01*
X111694531Y-68870552D01*
X111670317Y-68891461D01*
X111642039Y-68908278D01*
X111607786Y-68922433D01*
X111550627Y-68941065D01*
G37*
G36*
X112357163Y-69135236D02*
G01*
X112299460Y-69348351D01*
X112139760Y-69348351D01*
X111923551Y-68621447D01*
X111914431Y-68599245D01*
X111901078Y-68589203D01*
X111875565Y-68574601D01*
X111871168Y-68566763D01*
X111869485Y-68554516D01*
X111873517Y-68538375D01*
X111885878Y-68525963D01*
X111900907Y-68520386D01*
X111927785Y-68518038D01*
X112198060Y-68518038D01*
X112232964Y-68519287D01*
X112248489Y-68524118D01*
X112258748Y-68536277D01*
X112263036Y-68551476D01*
X112257773Y-68570715D01*
X112241758Y-68583721D01*
X112220207Y-68599843D01*
X112216054Y-68609152D01*
X112214453Y-68623239D01*
X112216299Y-68640283D01*
X112357163Y-69135236D01*
G37*
G36*
X112380233Y-69048220D02*
G01*
X112348044Y-68933683D01*
X112417906Y-68677847D01*
X112425180Y-68648100D01*
X112424366Y-68634495D01*
X112419100Y-68618299D01*
X112406505Y-68600532D01*
X112388756Y-68590343D01*
X112368671Y-68583069D01*
X112350785Y-68571179D01*
X112345004Y-68552074D01*
X112348365Y-68537537D01*
X112358357Y-68526886D01*
X112373349Y-68520482D01*
X112395378Y-68518038D01*
X112544168Y-68518038D01*
X112569600Y-68519800D01*
X112580592Y-68523521D01*
X112591557Y-68534631D01*
X112595194Y-68549631D01*
X112590634Y-68567924D01*
X112573915Y-68580029D01*
X112542974Y-68594631D01*
X112524939Y-68607270D01*
X112505627Y-68630838D01*
X112489941Y-68659387D01*
X112477997Y-68692558D01*
X112380233Y-69048220D01*
G37*
G36*
X112972732Y-68567164D02*
G01*
X112945300Y-68580774D01*
X112929034Y-68596911D01*
X112919879Y-68618391D01*
X112916278Y-68652117D01*
X112916278Y-69196141D01*
X112920640Y-69245328D01*
X112930826Y-69271649D01*
X112946061Y-69286657D01*
X112972732Y-69297813D01*
X112972732Y-69364798D01*
X112906968Y-69354068D01*
X112848091Y-69333591D01*
X112794975Y-69303481D01*
X112746806Y-69263235D01*
X112705542Y-69214250D01*
X112672956Y-69158063D01*
X112648895Y-69093618D01*
X112633747Y-69019523D01*
X112628415Y-68934117D01*
X112632074Y-68864119D01*
X112642645Y-68800634D01*
X112659682Y-68742878D01*
X112684199Y-68688144D01*
X112715023Y-68640012D01*
X112752289Y-68597780D01*
X112801521Y-68557174D01*
X112853092Y-68528406D01*
X112909257Y-68510030D01*
X112972732Y-68501645D01*
X112972732Y-68567164D01*
G37*
G36*
X113022510Y-68567164D02*
G01*
X113022510Y-68501645D01*
X113086022Y-68510023D01*
X113142421Y-68528406D01*
X113194312Y-68557200D01*
X113243604Y-68597780D01*
X113286919Y-68648157D01*
X113321026Y-68705760D01*
X113346146Y-68771639D01*
X113361930Y-68847196D01*
X113367478Y-68934117D01*
X113362144Y-69019520D01*
X113346990Y-69093613D01*
X113322919Y-69158059D01*
X113290318Y-69214247D01*
X113249032Y-69263235D01*
X113200822Y-69303729D01*
X113147608Y-69333913D01*
X113088557Y-69354311D01*
X113022510Y-69364798D01*
X113022510Y-69297813D01*
X113047100Y-69288422D01*
X113063222Y-69271649D01*
X113074923Y-69242900D01*
X113079615Y-69196141D01*
X113079615Y-68652117D01*
X113076602Y-68622013D01*
X113068704Y-68601145D01*
X113051334Y-68581115D01*
X113022510Y-68567164D01*
G37*
G36*
X113721891Y-68501645D02*
G01*
X113721891Y-68571453D01*
X113687636Y-68585228D01*
X113664460Y-68603425D01*
X113649783Y-68627226D01*
X113644755Y-68656623D01*
X113648934Y-68685394D01*
X113661149Y-68709874D01*
X113681269Y-68730956D01*
X113714617Y-68753355D01*
X113829969Y-68806878D01*
X113881204Y-68830887D01*
X113914704Y-68849816D01*
X113943615Y-68871056D01*
X113971484Y-68897530D01*
X114003074Y-68937417D01*
X114025224Y-68980135D01*
X114038579Y-69026365D01*
X114043138Y-69077044D01*
X114038747Y-69128295D01*
X114025810Y-69175887D01*
X114004271Y-69220623D01*
X113975155Y-69260868D01*
X113939733Y-69294787D01*
X113897388Y-69322838D01*
X113859619Y-69340066D01*
X113817538Y-69353507D01*
X113774645Y-69362100D01*
X113736439Y-69364798D01*
X113736439Y-69295425D01*
X113784446Y-69278943D01*
X113812653Y-69259869D01*
X113829931Y-69233697D01*
X113836048Y-69198095D01*
X113832169Y-69172526D01*
X113820424Y-69148886D01*
X113799625Y-69126333D01*
X113769229Y-69106479D01*
X113707289Y-69076447D01*
X113604966Y-69029655D01*
X113551823Y-68996760D01*
X113509793Y-68961054D01*
X113478214Y-68922080D01*
X113455906Y-68879421D01*
X113442338Y-68832298D01*
X113437666Y-68779628D01*
X113440914Y-68734048D01*
X113450459Y-68691545D01*
X113466219Y-68651574D01*
X113487980Y-68614654D01*
X113514404Y-68583316D01*
X113545743Y-68557013D01*
X113595283Y-68529382D01*
X113653410Y-68510717D01*
X113721891Y-68501645D01*
G37*
G36*
X113769878Y-68571453D02*
G01*
X113769878Y-68504685D01*
X113833009Y-68513967D01*
X113908951Y-68541054D01*
X113928981Y-68545831D01*
X113939201Y-68543789D01*
X113945971Y-68538069D01*
X113959325Y-68520752D01*
X113970351Y-68510762D01*
X113982992Y-68507616D01*
X113997432Y-68510711D01*
X114006986Y-68519504D01*
X114012371Y-68533292D01*
X114014585Y-68556850D01*
X114014585Y-68757155D01*
X114011984Y-68772916D01*
X114004543Y-68785110D01*
X113993217Y-68793204D01*
X113978758Y-68795967D01*
X113967152Y-68794031D01*
X113956285Y-68788096D01*
X113947437Y-68776371D01*
X113941086Y-68753138D01*
X113932205Y-68723701D01*
X113918016Y-68692178D01*
X113900102Y-68662218D01*
X113879801Y-68636049D01*
X113848229Y-68607199D01*
X113811864Y-68585768D01*
X113769878Y-68571453D01*
G37*
G36*
X113690299Y-69295425D02*
G01*
X113690299Y-69364798D01*
X113639968Y-69358281D01*
X113580376Y-69336680D01*
X113549380Y-69323543D01*
X113532987Y-69320558D01*
X113514802Y-69324249D01*
X113495369Y-69342759D01*
X113483542Y-69352386D01*
X113471701Y-69355299D01*
X113453699Y-69350300D01*
X113442351Y-69335199D01*
X113437666Y-69304490D01*
X113437666Y-69082852D01*
X113440154Y-69067389D01*
X113447382Y-69054788D01*
X113458373Y-69045941D01*
X113471701Y-69042629D01*
X113483854Y-69044323D01*
X113492600Y-69050228D01*
X113499100Y-69060269D01*
X113505682Y-69078998D01*
X113522817Y-69129647D01*
X113546069Y-69176653D01*
X113575108Y-69219104D01*
X113607734Y-69253572D01*
X113646385Y-69280451D01*
X113690299Y-69295425D01*
G37*
G36*
X114286651Y-68851553D02*
G01*
X114169454Y-68851553D01*
X114139707Y-68518038D01*
X114316398Y-68518038D01*
X114286651Y-68851553D01*
G37*
G36*
X109982392Y-70011558D02*
G01*
X109982392Y-70726193D01*
X109985015Y-70747797D01*
X109991511Y-70760283D01*
X110000576Y-70767883D01*
X110028532Y-70775482D01*
X110045253Y-70782566D01*
X110054465Y-70793405D01*
X110057682Y-70808975D01*
X110053901Y-70823017D01*
X110041886Y-70834542D01*
X110028258Y-70839693D01*
X110003616Y-70841871D01*
X109982989Y-70841871D01*
X109712117Y-70841871D01*
X109696320Y-70841871D01*
X109676033Y-70839589D01*
X109662611Y-70833674D01*
X109653777Y-70823768D01*
X109650777Y-70810224D01*
X109653541Y-70795324D01*
X109661362Y-70784695D01*
X109675096Y-70777328D01*
X109698437Y-70769131D01*
X109705494Y-70762129D01*
X109710665Y-70750663D01*
X109712768Y-70731079D01*
X109712768Y-70121970D01*
X109710668Y-70102481D01*
X109705494Y-70091028D01*
X109698437Y-70084080D01*
X109675096Y-70075883D01*
X109661353Y-70068522D01*
X109653537Y-70057925D01*
X109650777Y-70043097D01*
X109653776Y-70029609D01*
X109662611Y-70019755D01*
X109676033Y-70013840D01*
X109696320Y-70011558D01*
X109712117Y-70011558D01*
X109982392Y-70011558D01*
G37*
G36*
X110034015Y-70523447D02*
G01*
X110034015Y-70458307D01*
X110070764Y-70445551D01*
X110080424Y-70437321D01*
X110089275Y-70424814D01*
X110098500Y-70398601D01*
X110102031Y-70360869D01*
X110102031Y-70166427D01*
X110097743Y-70123924D01*
X110091549Y-70110800D01*
X110080752Y-70098411D01*
X110060745Y-70084878D01*
X110033418Y-70077132D01*
X110033418Y-70011558D01*
X110117611Y-70014857D01*
X110177276Y-70023360D01*
X110218034Y-70035280D01*
X110261141Y-70057096D01*
X110297081Y-70084952D01*
X110326709Y-70119147D01*
X110348863Y-70159433D01*
X110362598Y-70206159D01*
X110367421Y-70260826D01*
X110362387Y-70322047D01*
X110348315Y-70372421D01*
X110326111Y-70414012D01*
X110295371Y-70449467D01*
X110257287Y-70478373D01*
X110210760Y-70500973D01*
X110169039Y-70512445D01*
X110111467Y-70520417D01*
X110034015Y-70523447D01*
G37*
G36*
X110776063Y-69995165D02*
G01*
X110776063Y-70068610D01*
X110744290Y-70079528D01*
X110722594Y-70100148D01*
X110709922Y-70129703D01*
X110705007Y-70174733D01*
X110705007Y-70677447D01*
X110705007Y-70703612D01*
X110710761Y-70733142D01*
X110725634Y-70759632D01*
X110746262Y-70777002D01*
X110776063Y-70784005D01*
X110776063Y-70858318D01*
X110717727Y-70854284D01*
X110664698Y-70842561D01*
X110616152Y-70823448D01*
X110571416Y-70796870D01*
X110524874Y-70756908D01*
X110486538Y-70708675D01*
X110456011Y-70651120D01*
X110435076Y-70588893D01*
X110421823Y-70517093D01*
X110417144Y-70434151D01*
X110423593Y-70344342D01*
X110442331Y-70262834D01*
X110462059Y-70211390D01*
X110486467Y-70165643D01*
X110515505Y-70125010D01*
X110550054Y-70088207D01*
X110588702Y-70056664D01*
X110631779Y-70030123D01*
X110677971Y-70009583D01*
X110721180Y-69997930D01*
X110762112Y-69994188D01*
X110776063Y-69995165D01*
G37*
G36*
X110823995Y-70069207D02*
G01*
X110823995Y-69995762D01*
X110872252Y-70005913D01*
X110939400Y-70028603D01*
X110980656Y-70039351D01*
X110996207Y-70035665D01*
X111007417Y-70024695D01*
X111015288Y-70011178D01*
X111025255Y-70001299D01*
X111042647Y-69997662D01*
X111057565Y-70000099D01*
X111067834Y-70006781D01*
X111074233Y-70017399D01*
X111076628Y-70033434D01*
X111076628Y-70286013D01*
X111073567Y-70307528D01*
X111065717Y-70320483D01*
X111053855Y-70328567D01*
X111040801Y-70331176D01*
X111027458Y-70328750D01*
X111017405Y-70321785D01*
X111009947Y-70310514D01*
X111003129Y-70291224D01*
X110978267Y-70216205D01*
X110949343Y-70162675D01*
X110918719Y-70123055D01*
X110895543Y-70101075D01*
X110873772Y-70085872D01*
X110850269Y-70075251D01*
X110823995Y-70069207D01*
G37*
G36*
X110825840Y-70858318D02*
G01*
X110825840Y-70784005D01*
X110872796Y-70773697D01*
X110925450Y-70747798D01*
X110951510Y-70727327D01*
X110975227Y-70700246D01*
X110994345Y-70669067D01*
X111008014Y-70634890D01*
X111015168Y-70617046D01*
X111022291Y-70606988D01*
X111031588Y-70600832D01*
X111043841Y-70598683D01*
X111057212Y-70601433D01*
X111068160Y-70609702D01*
X111075372Y-70621895D01*
X111077876Y-70637278D01*
X111073283Y-70665608D01*
X111056923Y-70703992D01*
X111033162Y-70741448D01*
X111003183Y-70776242D01*
X110961485Y-70812236D01*
X110920836Y-70836279D01*
X110876750Y-70851411D01*
X110825840Y-70858318D01*
G37*
G36*
X111500578Y-70011558D02*
G01*
X111500578Y-70841871D01*
X111230303Y-70841871D01*
X111214507Y-70841871D01*
X111194219Y-70839589D01*
X111180797Y-70833674D01*
X111171963Y-70823768D01*
X111168963Y-70810224D01*
X111171727Y-70795324D01*
X111179548Y-70784695D01*
X111193282Y-70777328D01*
X111216624Y-70769131D01*
X111223680Y-70762129D01*
X111228851Y-70750663D01*
X111230954Y-70731079D01*
X111230954Y-70121970D01*
X111228854Y-70102481D01*
X111223680Y-70091028D01*
X111216624Y-70084080D01*
X111193282Y-70075883D01*
X111179539Y-70068522D01*
X111171723Y-70057925D01*
X111168963Y-70043097D01*
X111171962Y-70029609D01*
X111180797Y-70019755D01*
X111194219Y-70013840D01*
X111214507Y-70011558D01*
X111230303Y-70011558D01*
X111500578Y-70011558D01*
G37*
G36*
X111689428Y-70411407D02*
G01*
X111773513Y-70432740D01*
X111801836Y-70444585D01*
X111826656Y-70458904D01*
X111862605Y-70489293D01*
X111888918Y-70528006D01*
X111904950Y-70572877D01*
X111910469Y-70623924D01*
X111905403Y-70674467D01*
X111890933Y-70717458D01*
X111867360Y-70754454D01*
X111833930Y-70786448D01*
X111792355Y-70812439D01*
X111746805Y-70829385D01*
X111695437Y-70838370D01*
X111622009Y-70841871D01*
X111549758Y-70841871D01*
X111549758Y-70778088D01*
X111588028Y-70771140D01*
X111601090Y-70764303D01*
X111612944Y-70753824D01*
X111627343Y-70727210D01*
X111632974Y-70683961D01*
X111632974Y-70545377D01*
X111631497Y-70516618D01*
X111627817Y-70497879D01*
X111620585Y-70481795D01*
X111608710Y-70466829D01*
X111586182Y-70450979D01*
X111551604Y-70443053D01*
X111551604Y-70379760D01*
X111586508Y-70373680D01*
X111609307Y-70359675D01*
X111625700Y-70335953D01*
X111632974Y-70309137D01*
X111632974Y-70275645D01*
X111632974Y-70170662D01*
X111627491Y-70136355D01*
X111614138Y-70108128D01*
X111601714Y-70095776D01*
X111588353Y-70087446D01*
X111572681Y-70082108D01*
X111549758Y-70078380D01*
X111549758Y-70011558D01*
X111619620Y-70011558D01*
X111690009Y-70015772D01*
X111747253Y-70027391D01*
X111793604Y-70045237D01*
X111830944Y-70068664D01*
X111860482Y-70097684D01*
X111881916Y-70131903D01*
X111895092Y-70170208D01*
X111899558Y-70212079D01*
X111895057Y-70253514D01*
X111881644Y-70292310D01*
X111860087Y-70326887D01*
X111831541Y-70354898D01*
X111806320Y-70372351D01*
X111776878Y-70386491D01*
X111689428Y-70411407D01*
G37*
D11*
X132464286Y-95454819D02*
X132464286Y-96264342D01*
X132464286Y-96264342D02*
X132511905Y-96359580D01*
X132511905Y-96359580D02*
X132559524Y-96407200D01*
X132559524Y-96407200D02*
X132654762Y-96454819D01*
X132654762Y-96454819D02*
X132845238Y-96454819D01*
X132845238Y-96454819D02*
X132940476Y-96407200D01*
X132940476Y-96407200D02*
X132988095Y-96359580D01*
X132988095Y-96359580D02*
X133035714Y-96264342D01*
X133035714Y-96264342D02*
X133035714Y-95454819D01*
X133511905Y-96454819D02*
X133511905Y-95454819D01*
X133511905Y-95454819D02*
X133892857Y-95454819D01*
X133892857Y-95454819D02*
X133988095Y-95502438D01*
X133988095Y-95502438D02*
X134035714Y-95550057D01*
X134035714Y-95550057D02*
X134083333Y-95645295D01*
X134083333Y-95645295D02*
X134083333Y-95788152D01*
X134083333Y-95788152D02*
X134035714Y-95883390D01*
X134035714Y-95883390D02*
X133988095Y-95931009D01*
X133988095Y-95931009D02*
X133892857Y-95978628D01*
X133892857Y-95978628D02*
X133511905Y-95978628D01*
X119523333Y-73034819D02*
X119190000Y-72558628D01*
X118951905Y-73034819D02*
X118951905Y-72034819D01*
X118951905Y-72034819D02*
X119332857Y-72034819D01*
X119332857Y-72034819D02*
X119428095Y-72082438D01*
X119428095Y-72082438D02*
X119475714Y-72130057D01*
X119475714Y-72130057D02*
X119523333Y-72225295D01*
X119523333Y-72225295D02*
X119523333Y-72368152D01*
X119523333Y-72368152D02*
X119475714Y-72463390D01*
X119475714Y-72463390D02*
X119428095Y-72511009D01*
X119428095Y-72511009D02*
X119332857Y-72558628D01*
X119332857Y-72558628D02*
X118951905Y-72558628D01*
X120380476Y-72368152D02*
X120380476Y-73034819D01*
X120142381Y-71987200D02*
X119904286Y-72701485D01*
X119904286Y-72701485D02*
X120523333Y-72701485D01*
X119859580Y-100666666D02*
X119907200Y-100714285D01*
X119907200Y-100714285D02*
X119954819Y-100857142D01*
X119954819Y-100857142D02*
X119954819Y-100952380D01*
X119954819Y-100952380D02*
X119907200Y-101095237D01*
X119907200Y-101095237D02*
X119811961Y-101190475D01*
X119811961Y-101190475D02*
X119716723Y-101238094D01*
X119716723Y-101238094D02*
X119526247Y-101285713D01*
X119526247Y-101285713D02*
X119383390Y-101285713D01*
X119383390Y-101285713D02*
X119192914Y-101238094D01*
X119192914Y-101238094D02*
X119097676Y-101190475D01*
X119097676Y-101190475D02*
X119002438Y-101095237D01*
X119002438Y-101095237D02*
X118954819Y-100952380D01*
X118954819Y-100952380D02*
X118954819Y-100857142D01*
X118954819Y-100857142D02*
X119002438Y-100714285D01*
X119002438Y-100714285D02*
X119050057Y-100666666D01*
X119050057Y-100285713D02*
X119002438Y-100238094D01*
X119002438Y-100238094D02*
X118954819Y-100142856D01*
X118954819Y-100142856D02*
X118954819Y-99904761D01*
X118954819Y-99904761D02*
X119002438Y-99809523D01*
X119002438Y-99809523D02*
X119050057Y-99761904D01*
X119050057Y-99761904D02*
X119145295Y-99714285D01*
X119145295Y-99714285D02*
X119240533Y-99714285D01*
X119240533Y-99714285D02*
X119383390Y-99761904D01*
X119383390Y-99761904D02*
X119954819Y-100333332D01*
X119954819Y-100333332D02*
X119954819Y-99714285D01*
D12*
X75692095Y-105383419D02*
X75692095Y-106192942D01*
X75692095Y-106192942D02*
X75739714Y-106288180D01*
X75739714Y-106288180D02*
X75787333Y-106335800D01*
X75787333Y-106335800D02*
X75882571Y-106383419D01*
X75882571Y-106383419D02*
X76073047Y-106383419D01*
X76073047Y-106383419D02*
X76168285Y-106335800D01*
X76168285Y-106335800D02*
X76215904Y-106288180D01*
X76215904Y-106288180D02*
X76263523Y-106192942D01*
X76263523Y-106192942D02*
X76263523Y-105383419D01*
X77263523Y-106383419D02*
X76692095Y-106383419D01*
X76977809Y-106383419D02*
X76977809Y-105383419D01*
X76977809Y-105383419D02*
X76882571Y-105526276D01*
X76882571Y-105526276D02*
X76787333Y-105621514D01*
X76787333Y-105621514D02*
X76692095Y-105669133D01*
X69976419Y-101804115D02*
X68976419Y-101804115D01*
X69976419Y-101327925D02*
X68976419Y-101327925D01*
X68976419Y-101327925D02*
X69976419Y-100756497D01*
X69976419Y-100756497D02*
X68976419Y-100756497D01*
X68976419Y-100423163D02*
X68976419Y-99851735D01*
X69976419Y-100137449D02*
X68976419Y-100137449D01*
X73484800Y-102359734D02*
X73532419Y-102216877D01*
X73532419Y-102216877D02*
X73532419Y-101978782D01*
X73532419Y-101978782D02*
X73484800Y-101883544D01*
X73484800Y-101883544D02*
X73437180Y-101835925D01*
X73437180Y-101835925D02*
X73341942Y-101788306D01*
X73341942Y-101788306D02*
X73246704Y-101788306D01*
X73246704Y-101788306D02*
X73151466Y-101835925D01*
X73151466Y-101835925D02*
X73103847Y-101883544D01*
X73103847Y-101883544D02*
X73056228Y-101978782D01*
X73056228Y-101978782D02*
X73008609Y-102169258D01*
X73008609Y-102169258D02*
X72960990Y-102264496D01*
X72960990Y-102264496D02*
X72913371Y-102312115D01*
X72913371Y-102312115D02*
X72818133Y-102359734D01*
X72818133Y-102359734D02*
X72722895Y-102359734D01*
X72722895Y-102359734D02*
X72627657Y-102312115D01*
X72627657Y-102312115D02*
X72580038Y-102264496D01*
X72580038Y-102264496D02*
X72532419Y-102169258D01*
X72532419Y-102169258D02*
X72532419Y-101931163D01*
X72532419Y-101931163D02*
X72580038Y-101788306D01*
X73532419Y-101359734D02*
X72532419Y-101359734D01*
X72532419Y-101359734D02*
X72532419Y-101121639D01*
X72532419Y-101121639D02*
X72580038Y-100978782D01*
X72580038Y-100978782D02*
X72675276Y-100883544D01*
X72675276Y-100883544D02*
X72770514Y-100835925D01*
X72770514Y-100835925D02*
X72960990Y-100788306D01*
X72960990Y-100788306D02*
X73103847Y-100788306D01*
X73103847Y-100788306D02*
X73294323Y-100835925D01*
X73294323Y-100835925D02*
X73389561Y-100883544D01*
X73389561Y-100883544D02*
X73484800Y-100978782D01*
X73484800Y-100978782D02*
X73532419Y-101121639D01*
X73532419Y-101121639D02*
X73532419Y-101359734D01*
X73246704Y-100407353D02*
X73246704Y-99931163D01*
X73532419Y-100502591D02*
X72532419Y-100169258D01*
X72532419Y-100169258D02*
X73532419Y-99835925D01*
X77040800Y-102105734D02*
X77088419Y-101962877D01*
X77088419Y-101962877D02*
X77088419Y-101724782D01*
X77088419Y-101724782D02*
X77040800Y-101629544D01*
X77040800Y-101629544D02*
X76993180Y-101581925D01*
X76993180Y-101581925D02*
X76897942Y-101534306D01*
X76897942Y-101534306D02*
X76802704Y-101534306D01*
X76802704Y-101534306D02*
X76707466Y-101581925D01*
X76707466Y-101581925D02*
X76659847Y-101629544D01*
X76659847Y-101629544D02*
X76612228Y-101724782D01*
X76612228Y-101724782D02*
X76564609Y-101915258D01*
X76564609Y-101915258D02*
X76516990Y-102010496D01*
X76516990Y-102010496D02*
X76469371Y-102058115D01*
X76469371Y-102058115D02*
X76374133Y-102105734D01*
X76374133Y-102105734D02*
X76278895Y-102105734D01*
X76278895Y-102105734D02*
X76183657Y-102058115D01*
X76183657Y-102058115D02*
X76136038Y-102010496D01*
X76136038Y-102010496D02*
X76088419Y-101915258D01*
X76088419Y-101915258D02*
X76088419Y-101677163D01*
X76088419Y-101677163D02*
X76136038Y-101534306D01*
X76993180Y-100534306D02*
X77040800Y-100581925D01*
X77040800Y-100581925D02*
X77088419Y-100724782D01*
X77088419Y-100724782D02*
X77088419Y-100820020D01*
X77088419Y-100820020D02*
X77040800Y-100962877D01*
X77040800Y-100962877D02*
X76945561Y-101058115D01*
X76945561Y-101058115D02*
X76850323Y-101105734D01*
X76850323Y-101105734D02*
X76659847Y-101153353D01*
X76659847Y-101153353D02*
X76516990Y-101153353D01*
X76516990Y-101153353D02*
X76326514Y-101105734D01*
X76326514Y-101105734D02*
X76231276Y-101058115D01*
X76231276Y-101058115D02*
X76136038Y-100962877D01*
X76136038Y-100962877D02*
X76088419Y-100820020D01*
X76088419Y-100820020D02*
X76088419Y-100724782D01*
X76088419Y-100724782D02*
X76136038Y-100581925D01*
X76136038Y-100581925D02*
X76183657Y-100534306D01*
X77088419Y-99629544D02*
X77088419Y-100105734D01*
X77088419Y-100105734D02*
X76088419Y-100105734D01*
X79946038Y-101788306D02*
X79898419Y-101883544D01*
X79898419Y-101883544D02*
X79898419Y-102026401D01*
X79898419Y-102026401D02*
X79946038Y-102169258D01*
X79946038Y-102169258D02*
X80041276Y-102264496D01*
X80041276Y-102264496D02*
X80136514Y-102312115D01*
X80136514Y-102312115D02*
X80326990Y-102359734D01*
X80326990Y-102359734D02*
X80469847Y-102359734D01*
X80469847Y-102359734D02*
X80660323Y-102312115D01*
X80660323Y-102312115D02*
X80755561Y-102264496D01*
X80755561Y-102264496D02*
X80850800Y-102169258D01*
X80850800Y-102169258D02*
X80898419Y-102026401D01*
X80898419Y-102026401D02*
X80898419Y-101931163D01*
X80898419Y-101931163D02*
X80850800Y-101788306D01*
X80850800Y-101788306D02*
X80803180Y-101740687D01*
X80803180Y-101740687D02*
X80469847Y-101740687D01*
X80469847Y-101740687D02*
X80469847Y-101931163D01*
X80898419Y-101312115D02*
X79898419Y-101312115D01*
X79898419Y-101312115D02*
X80898419Y-100740687D01*
X80898419Y-100740687D02*
X79898419Y-100740687D01*
X80898419Y-100264496D02*
X79898419Y-100264496D01*
X79898419Y-100264496D02*
X79898419Y-100026401D01*
X79898419Y-100026401D02*
X79946038Y-99883544D01*
X79946038Y-99883544D02*
X80041276Y-99788306D01*
X80041276Y-99788306D02*
X80136514Y-99740687D01*
X80136514Y-99740687D02*
X80326990Y-99693068D01*
X80326990Y-99693068D02*
X80469847Y-99693068D01*
X80469847Y-99693068D02*
X80660323Y-99740687D01*
X80660323Y-99740687D02*
X80755561Y-99788306D01*
X80755561Y-99788306D02*
X80850800Y-99883544D01*
X80850800Y-99883544D02*
X80898419Y-100026401D01*
X80898419Y-100026401D02*
X80898419Y-100264496D01*
X83708419Y-102454972D02*
X84708419Y-102121639D01*
X84708419Y-102121639D02*
X83708419Y-101788306D01*
X84613180Y-100883544D02*
X84660800Y-100931163D01*
X84660800Y-100931163D02*
X84708419Y-101074020D01*
X84708419Y-101074020D02*
X84708419Y-101169258D01*
X84708419Y-101169258D02*
X84660800Y-101312115D01*
X84660800Y-101312115D02*
X84565561Y-101407353D01*
X84565561Y-101407353D02*
X84470323Y-101454972D01*
X84470323Y-101454972D02*
X84279847Y-101502591D01*
X84279847Y-101502591D02*
X84136990Y-101502591D01*
X84136990Y-101502591D02*
X83946514Y-101454972D01*
X83946514Y-101454972D02*
X83851276Y-101407353D01*
X83851276Y-101407353D02*
X83756038Y-101312115D01*
X83756038Y-101312115D02*
X83708419Y-101169258D01*
X83708419Y-101169258D02*
X83708419Y-101074020D01*
X83708419Y-101074020D02*
X83756038Y-100931163D01*
X83756038Y-100931163D02*
X83803657Y-100883544D01*
X84613180Y-99883544D02*
X84660800Y-99931163D01*
X84660800Y-99931163D02*
X84708419Y-100074020D01*
X84708419Y-100074020D02*
X84708419Y-100169258D01*
X84708419Y-100169258D02*
X84660800Y-100312115D01*
X84660800Y-100312115D02*
X84565561Y-100407353D01*
X84565561Y-100407353D02*
X84470323Y-100454972D01*
X84470323Y-100454972D02*
X84279847Y-100502591D01*
X84279847Y-100502591D02*
X84136990Y-100502591D01*
X84136990Y-100502591D02*
X83946514Y-100454972D01*
X83946514Y-100454972D02*
X83851276Y-100407353D01*
X83851276Y-100407353D02*
X83756038Y-100312115D01*
X83756038Y-100312115D02*
X83708419Y-100169258D01*
X83708419Y-100169258D02*
X83708419Y-100074020D01*
X83708419Y-100074020D02*
X83756038Y-99931163D01*
X83756038Y-99931163D02*
X83803657Y-99883544D01*
D11*
X129302143Y-80075104D02*
X129778333Y-80075104D01*
X129206905Y-80360819D02*
X129540238Y-79360819D01*
X129540238Y-79360819D02*
X129873571Y-80360819D01*
X130683095Y-80360819D02*
X130206905Y-80360819D01*
X130206905Y-80360819D02*
X130206905Y-79360819D01*
X130968810Y-80075104D02*
X131445000Y-80075104D01*
X130873572Y-80360819D02*
X131206905Y-79360819D01*
X131206905Y-79360819D02*
X131540238Y-80360819D01*
X132445000Y-80360819D02*
X132111667Y-79884628D01*
X131873572Y-80360819D02*
X131873572Y-79360819D01*
X131873572Y-79360819D02*
X132254524Y-79360819D01*
X132254524Y-79360819D02*
X132349762Y-79408438D01*
X132349762Y-79408438D02*
X132397381Y-79456057D01*
X132397381Y-79456057D02*
X132445000Y-79551295D01*
X132445000Y-79551295D02*
X132445000Y-79694152D01*
X132445000Y-79694152D02*
X132397381Y-79789390D01*
X132397381Y-79789390D02*
X132349762Y-79837009D01*
X132349762Y-79837009D02*
X132254524Y-79884628D01*
X132254524Y-79884628D02*
X131873572Y-79884628D01*
X132873572Y-80360819D02*
X132873572Y-79360819D01*
X132873572Y-79360819D02*
X133206905Y-80075104D01*
X133206905Y-80075104D02*
X133540238Y-79360819D01*
X133540238Y-79360819D02*
X133540238Y-80360819D01*
X114534819Y-87356666D02*
X114058628Y-87689999D01*
X114534819Y-87928094D02*
X113534819Y-87928094D01*
X113534819Y-87928094D02*
X113534819Y-87547142D01*
X113534819Y-87547142D02*
X113582438Y-87451904D01*
X113582438Y-87451904D02*
X113630057Y-87404285D01*
X113630057Y-87404285D02*
X113725295Y-87356666D01*
X113725295Y-87356666D02*
X113868152Y-87356666D01*
X113868152Y-87356666D02*
X113963390Y-87404285D01*
X113963390Y-87404285D02*
X114011009Y-87451904D01*
X114011009Y-87451904D02*
X114058628Y-87547142D01*
X114058628Y-87547142D02*
X114058628Y-87928094D01*
X113534819Y-87023332D02*
X113534819Y-86404285D01*
X113534819Y-86404285D02*
X113915771Y-86737618D01*
X113915771Y-86737618D02*
X113915771Y-86594761D01*
X113915771Y-86594761D02*
X113963390Y-86499523D01*
X113963390Y-86499523D02*
X114011009Y-86451904D01*
X114011009Y-86451904D02*
X114106247Y-86404285D01*
X114106247Y-86404285D02*
X114344342Y-86404285D01*
X114344342Y-86404285D02*
X114439580Y-86451904D01*
X114439580Y-86451904D02*
X114487200Y-86499523D01*
X114487200Y-86499523D02*
X114534819Y-86594761D01*
X114534819Y-86594761D02*
X114534819Y-86880475D01*
X114534819Y-86880475D02*
X114487200Y-86975713D01*
X114487200Y-86975713D02*
X114439580Y-87023332D01*
X114414819Y-111356666D02*
X113938628Y-111689999D01*
X114414819Y-111928094D02*
X113414819Y-111928094D01*
X113414819Y-111928094D02*
X113414819Y-111547142D01*
X113414819Y-111547142D02*
X113462438Y-111451904D01*
X113462438Y-111451904D02*
X113510057Y-111404285D01*
X113510057Y-111404285D02*
X113605295Y-111356666D01*
X113605295Y-111356666D02*
X113748152Y-111356666D01*
X113748152Y-111356666D02*
X113843390Y-111404285D01*
X113843390Y-111404285D02*
X113891009Y-111451904D01*
X113891009Y-111451904D02*
X113938628Y-111547142D01*
X113938628Y-111547142D02*
X113938628Y-111928094D01*
X114414819Y-110404285D02*
X114414819Y-110975713D01*
X114414819Y-110689999D02*
X113414819Y-110689999D01*
X113414819Y-110689999D02*
X113557676Y-110785237D01*
X113557676Y-110785237D02*
X113652914Y-110880475D01*
X113652914Y-110880475D02*
X113700533Y-110975713D01*
X119859580Y-112666666D02*
X119907200Y-112714285D01*
X119907200Y-112714285D02*
X119954819Y-112857142D01*
X119954819Y-112857142D02*
X119954819Y-112952380D01*
X119954819Y-112952380D02*
X119907200Y-113095237D01*
X119907200Y-113095237D02*
X119811961Y-113190475D01*
X119811961Y-113190475D02*
X119716723Y-113238094D01*
X119716723Y-113238094D02*
X119526247Y-113285713D01*
X119526247Y-113285713D02*
X119383390Y-113285713D01*
X119383390Y-113285713D02*
X119192914Y-113238094D01*
X119192914Y-113238094D02*
X119097676Y-113190475D01*
X119097676Y-113190475D02*
X119002438Y-113095237D01*
X119002438Y-113095237D02*
X118954819Y-112952380D01*
X118954819Y-112952380D02*
X118954819Y-112857142D01*
X118954819Y-112857142D02*
X119002438Y-112714285D01*
X119002438Y-112714285D02*
X119050057Y-112666666D01*
X119954819Y-111714285D02*
X119954819Y-112285713D01*
X119954819Y-111999999D02*
X118954819Y-111999999D01*
X118954819Y-111999999D02*
X119097676Y-112095237D01*
X119097676Y-112095237D02*
X119192914Y-112190475D01*
X119192914Y-112190475D02*
X119240533Y-112285713D01*
X119859580Y-88166666D02*
X119907200Y-88214285D01*
X119907200Y-88214285D02*
X119954819Y-88357142D01*
X119954819Y-88357142D02*
X119954819Y-88452380D01*
X119954819Y-88452380D02*
X119907200Y-88595237D01*
X119907200Y-88595237D02*
X119811961Y-88690475D01*
X119811961Y-88690475D02*
X119716723Y-88738094D01*
X119716723Y-88738094D02*
X119526247Y-88785713D01*
X119526247Y-88785713D02*
X119383390Y-88785713D01*
X119383390Y-88785713D02*
X119192914Y-88738094D01*
X119192914Y-88738094D02*
X119097676Y-88690475D01*
X119097676Y-88690475D02*
X119002438Y-88595237D01*
X119002438Y-88595237D02*
X118954819Y-88452380D01*
X118954819Y-88452380D02*
X118954819Y-88357142D01*
X118954819Y-88357142D02*
X119002438Y-88214285D01*
X119002438Y-88214285D02*
X119050057Y-88166666D01*
X118954819Y-87833332D02*
X118954819Y-87214285D01*
X118954819Y-87214285D02*
X119335771Y-87547618D01*
X119335771Y-87547618D02*
X119335771Y-87404761D01*
X119335771Y-87404761D02*
X119383390Y-87309523D01*
X119383390Y-87309523D02*
X119431009Y-87261904D01*
X119431009Y-87261904D02*
X119526247Y-87214285D01*
X119526247Y-87214285D02*
X119764342Y-87214285D01*
X119764342Y-87214285D02*
X119859580Y-87261904D01*
X119859580Y-87261904D02*
X119907200Y-87309523D01*
X119907200Y-87309523D02*
X119954819Y-87404761D01*
X119954819Y-87404761D02*
X119954819Y-87690475D01*
X119954819Y-87690475D02*
X119907200Y-87785713D01*
X119907200Y-87785713D02*
X119859580Y-87833332D01*
X131369048Y-108454819D02*
X131369048Y-107454819D01*
X131369048Y-107454819D02*
X131607143Y-107454819D01*
X131607143Y-107454819D02*
X131750000Y-107502438D01*
X131750000Y-107502438D02*
X131845238Y-107597676D01*
X131845238Y-107597676D02*
X131892857Y-107692914D01*
X131892857Y-107692914D02*
X131940476Y-107883390D01*
X131940476Y-107883390D02*
X131940476Y-108026247D01*
X131940476Y-108026247D02*
X131892857Y-108216723D01*
X131892857Y-108216723D02*
X131845238Y-108311961D01*
X131845238Y-108311961D02*
X131750000Y-108407200D01*
X131750000Y-108407200D02*
X131607143Y-108454819D01*
X131607143Y-108454819D02*
X131369048Y-108454819D01*
X132559524Y-107454819D02*
X132750000Y-107454819D01*
X132750000Y-107454819D02*
X132845238Y-107502438D01*
X132845238Y-107502438D02*
X132940476Y-107597676D01*
X132940476Y-107597676D02*
X132988095Y-107788152D01*
X132988095Y-107788152D02*
X132988095Y-108121485D01*
X132988095Y-108121485D02*
X132940476Y-108311961D01*
X132940476Y-108311961D02*
X132845238Y-108407200D01*
X132845238Y-108407200D02*
X132750000Y-108454819D01*
X132750000Y-108454819D02*
X132559524Y-108454819D01*
X132559524Y-108454819D02*
X132464286Y-108407200D01*
X132464286Y-108407200D02*
X132369048Y-108311961D01*
X132369048Y-108311961D02*
X132321429Y-108121485D01*
X132321429Y-108121485D02*
X132321429Y-107788152D01*
X132321429Y-107788152D02*
X132369048Y-107597676D01*
X132369048Y-107597676D02*
X132464286Y-107502438D01*
X132464286Y-107502438D02*
X132559524Y-107454819D01*
X133321429Y-107454819D02*
X133559524Y-108454819D01*
X133559524Y-108454819D02*
X133750000Y-107740533D01*
X133750000Y-107740533D02*
X133940476Y-108454819D01*
X133940476Y-108454819D02*
X134178572Y-107454819D01*
X134559524Y-108454819D02*
X134559524Y-107454819D01*
X134559524Y-107454819D02*
X135130952Y-108454819D01*
X135130952Y-108454819D02*
X135130952Y-107454819D01*
X131416667Y-84454819D02*
X131416667Y-83454819D01*
X131416667Y-83454819D02*
X131750000Y-84169104D01*
X131750000Y-84169104D02*
X132083333Y-83454819D01*
X132083333Y-83454819D02*
X132083333Y-84454819D01*
X132559524Y-83931009D02*
X132892857Y-83931009D01*
X133035714Y-84454819D02*
X132559524Y-84454819D01*
X132559524Y-84454819D02*
X132559524Y-83454819D01*
X132559524Y-83454819D02*
X133035714Y-83454819D01*
X133464286Y-84454819D02*
X133464286Y-83454819D01*
X133464286Y-83454819D02*
X134035714Y-84454819D01*
X134035714Y-84454819D02*
X134035714Y-83454819D01*
X134511905Y-83454819D02*
X134511905Y-84264342D01*
X134511905Y-84264342D02*
X134559524Y-84359580D01*
X134559524Y-84359580D02*
X134607143Y-84407200D01*
X134607143Y-84407200D02*
X134702381Y-84454819D01*
X134702381Y-84454819D02*
X134892857Y-84454819D01*
X134892857Y-84454819D02*
X134988095Y-84407200D01*
X134988095Y-84407200D02*
X135035714Y-84359580D01*
X135035714Y-84359580D02*
X135083333Y-84264342D01*
X135083333Y-84264342D02*
X135083333Y-83454819D01*
D12*
X71833800Y-76705734D02*
X71881419Y-76562877D01*
X71881419Y-76562877D02*
X71881419Y-76324782D01*
X71881419Y-76324782D02*
X71833800Y-76229544D01*
X71833800Y-76229544D02*
X71786180Y-76181925D01*
X71786180Y-76181925D02*
X71690942Y-76134306D01*
X71690942Y-76134306D02*
X71595704Y-76134306D01*
X71595704Y-76134306D02*
X71500466Y-76181925D01*
X71500466Y-76181925D02*
X71452847Y-76229544D01*
X71452847Y-76229544D02*
X71405228Y-76324782D01*
X71405228Y-76324782D02*
X71357609Y-76515258D01*
X71357609Y-76515258D02*
X71309990Y-76610496D01*
X71309990Y-76610496D02*
X71262371Y-76658115D01*
X71262371Y-76658115D02*
X71167133Y-76705734D01*
X71167133Y-76705734D02*
X71071895Y-76705734D01*
X71071895Y-76705734D02*
X70976657Y-76658115D01*
X70976657Y-76658115D02*
X70929038Y-76610496D01*
X70929038Y-76610496D02*
X70881419Y-76515258D01*
X70881419Y-76515258D02*
X70881419Y-76277163D01*
X70881419Y-76277163D02*
X70929038Y-76134306D01*
X71881419Y-75705734D02*
X70881419Y-75705734D01*
X70881419Y-75705734D02*
X70881419Y-75467639D01*
X70881419Y-75467639D02*
X70929038Y-75324782D01*
X70929038Y-75324782D02*
X71024276Y-75229544D01*
X71024276Y-75229544D02*
X71119514Y-75181925D01*
X71119514Y-75181925D02*
X71309990Y-75134306D01*
X71309990Y-75134306D02*
X71452847Y-75134306D01*
X71452847Y-75134306D02*
X71643323Y-75181925D01*
X71643323Y-75181925D02*
X71738561Y-75229544D01*
X71738561Y-75229544D02*
X71833800Y-75324782D01*
X71833800Y-75324782D02*
X71881419Y-75467639D01*
X71881419Y-75467639D02*
X71881419Y-75705734D01*
X71595704Y-74753353D02*
X71595704Y-74277163D01*
X71881419Y-74848591D02*
X70881419Y-74515258D01*
X70881419Y-74515258D02*
X71881419Y-74181925D01*
X75389800Y-76451734D02*
X75437419Y-76308877D01*
X75437419Y-76308877D02*
X75437419Y-76070782D01*
X75437419Y-76070782D02*
X75389800Y-75975544D01*
X75389800Y-75975544D02*
X75342180Y-75927925D01*
X75342180Y-75927925D02*
X75246942Y-75880306D01*
X75246942Y-75880306D02*
X75151704Y-75880306D01*
X75151704Y-75880306D02*
X75056466Y-75927925D01*
X75056466Y-75927925D02*
X75008847Y-75975544D01*
X75008847Y-75975544D02*
X74961228Y-76070782D01*
X74961228Y-76070782D02*
X74913609Y-76261258D01*
X74913609Y-76261258D02*
X74865990Y-76356496D01*
X74865990Y-76356496D02*
X74818371Y-76404115D01*
X74818371Y-76404115D02*
X74723133Y-76451734D01*
X74723133Y-76451734D02*
X74627895Y-76451734D01*
X74627895Y-76451734D02*
X74532657Y-76404115D01*
X74532657Y-76404115D02*
X74485038Y-76356496D01*
X74485038Y-76356496D02*
X74437419Y-76261258D01*
X74437419Y-76261258D02*
X74437419Y-76023163D01*
X74437419Y-76023163D02*
X74485038Y-75880306D01*
X75342180Y-74880306D02*
X75389800Y-74927925D01*
X75389800Y-74927925D02*
X75437419Y-75070782D01*
X75437419Y-75070782D02*
X75437419Y-75166020D01*
X75437419Y-75166020D02*
X75389800Y-75308877D01*
X75389800Y-75308877D02*
X75294561Y-75404115D01*
X75294561Y-75404115D02*
X75199323Y-75451734D01*
X75199323Y-75451734D02*
X75008847Y-75499353D01*
X75008847Y-75499353D02*
X74865990Y-75499353D01*
X74865990Y-75499353D02*
X74675514Y-75451734D01*
X74675514Y-75451734D02*
X74580276Y-75404115D01*
X74580276Y-75404115D02*
X74485038Y-75308877D01*
X74485038Y-75308877D02*
X74437419Y-75166020D01*
X74437419Y-75166020D02*
X74437419Y-75070782D01*
X74437419Y-75070782D02*
X74485038Y-74927925D01*
X74485038Y-74927925D02*
X74532657Y-74880306D01*
X75437419Y-73975544D02*
X75437419Y-74451734D01*
X75437419Y-74451734D02*
X74437419Y-74451734D01*
X78295038Y-76134306D02*
X78247419Y-76229544D01*
X78247419Y-76229544D02*
X78247419Y-76372401D01*
X78247419Y-76372401D02*
X78295038Y-76515258D01*
X78295038Y-76515258D02*
X78390276Y-76610496D01*
X78390276Y-76610496D02*
X78485514Y-76658115D01*
X78485514Y-76658115D02*
X78675990Y-76705734D01*
X78675990Y-76705734D02*
X78818847Y-76705734D01*
X78818847Y-76705734D02*
X79009323Y-76658115D01*
X79009323Y-76658115D02*
X79104561Y-76610496D01*
X79104561Y-76610496D02*
X79199800Y-76515258D01*
X79199800Y-76515258D02*
X79247419Y-76372401D01*
X79247419Y-76372401D02*
X79247419Y-76277163D01*
X79247419Y-76277163D02*
X79199800Y-76134306D01*
X79199800Y-76134306D02*
X79152180Y-76086687D01*
X79152180Y-76086687D02*
X78818847Y-76086687D01*
X78818847Y-76086687D02*
X78818847Y-76277163D01*
X79247419Y-75658115D02*
X78247419Y-75658115D01*
X78247419Y-75658115D02*
X79247419Y-75086687D01*
X79247419Y-75086687D02*
X78247419Y-75086687D01*
X79247419Y-74610496D02*
X78247419Y-74610496D01*
X78247419Y-74610496D02*
X78247419Y-74372401D01*
X78247419Y-74372401D02*
X78295038Y-74229544D01*
X78295038Y-74229544D02*
X78390276Y-74134306D01*
X78390276Y-74134306D02*
X78485514Y-74086687D01*
X78485514Y-74086687D02*
X78675990Y-74039068D01*
X78675990Y-74039068D02*
X78818847Y-74039068D01*
X78818847Y-74039068D02*
X79009323Y-74086687D01*
X79009323Y-74086687D02*
X79104561Y-74134306D01*
X79104561Y-74134306D02*
X79199800Y-74229544D01*
X79199800Y-74229544D02*
X79247419Y-74372401D01*
X79247419Y-74372401D02*
X79247419Y-74610496D01*
X82057419Y-76800972D02*
X83057419Y-76467639D01*
X83057419Y-76467639D02*
X82057419Y-76134306D01*
X82962180Y-75229544D02*
X83009800Y-75277163D01*
X83009800Y-75277163D02*
X83057419Y-75420020D01*
X83057419Y-75420020D02*
X83057419Y-75515258D01*
X83057419Y-75515258D02*
X83009800Y-75658115D01*
X83009800Y-75658115D02*
X82914561Y-75753353D01*
X82914561Y-75753353D02*
X82819323Y-75800972D01*
X82819323Y-75800972D02*
X82628847Y-75848591D01*
X82628847Y-75848591D02*
X82485990Y-75848591D01*
X82485990Y-75848591D02*
X82295514Y-75800972D01*
X82295514Y-75800972D02*
X82200276Y-75753353D01*
X82200276Y-75753353D02*
X82105038Y-75658115D01*
X82105038Y-75658115D02*
X82057419Y-75515258D01*
X82057419Y-75515258D02*
X82057419Y-75420020D01*
X82057419Y-75420020D02*
X82105038Y-75277163D01*
X82105038Y-75277163D02*
X82152657Y-75229544D01*
X82962180Y-74229544D02*
X83009800Y-74277163D01*
X83009800Y-74277163D02*
X83057419Y-74420020D01*
X83057419Y-74420020D02*
X83057419Y-74515258D01*
X83057419Y-74515258D02*
X83009800Y-74658115D01*
X83009800Y-74658115D02*
X82914561Y-74753353D01*
X82914561Y-74753353D02*
X82819323Y-74800972D01*
X82819323Y-74800972D02*
X82628847Y-74848591D01*
X82628847Y-74848591D02*
X82485990Y-74848591D01*
X82485990Y-74848591D02*
X82295514Y-74800972D01*
X82295514Y-74800972D02*
X82200276Y-74753353D01*
X82200276Y-74753353D02*
X82105038Y-74658115D01*
X82105038Y-74658115D02*
X82057419Y-74515258D01*
X82057419Y-74515258D02*
X82057419Y-74420020D01*
X82057419Y-74420020D02*
X82105038Y-74277163D01*
X82105038Y-74277163D02*
X82152657Y-74229544D01*
D11*
X114534819Y-99856666D02*
X114058628Y-100189999D01*
X114534819Y-100428094D02*
X113534819Y-100428094D01*
X113534819Y-100428094D02*
X113534819Y-100047142D01*
X113534819Y-100047142D02*
X113582438Y-99951904D01*
X113582438Y-99951904D02*
X113630057Y-99904285D01*
X113630057Y-99904285D02*
X113725295Y-99856666D01*
X113725295Y-99856666D02*
X113868152Y-99856666D01*
X113868152Y-99856666D02*
X113963390Y-99904285D01*
X113963390Y-99904285D02*
X114011009Y-99951904D01*
X114011009Y-99951904D02*
X114058628Y-100047142D01*
X114058628Y-100047142D02*
X114058628Y-100428094D01*
X113630057Y-99475713D02*
X113582438Y-99428094D01*
X113582438Y-99428094D02*
X113534819Y-99332856D01*
X113534819Y-99332856D02*
X113534819Y-99094761D01*
X113534819Y-99094761D02*
X113582438Y-98999523D01*
X113582438Y-98999523D02*
X113630057Y-98951904D01*
X113630057Y-98951904D02*
X113725295Y-98904285D01*
X113725295Y-98904285D02*
X113820533Y-98904285D01*
X113820533Y-98904285D02*
X113963390Y-98951904D01*
X113963390Y-98951904D02*
X114534819Y-99523332D01*
X114534819Y-99523332D02*
X114534819Y-98904285D01*
X98405714Y-116749104D02*
X98881904Y-116749104D01*
X98310476Y-117034819D02*
X98643809Y-116034819D01*
X98643809Y-116034819D02*
X98977142Y-117034819D01*
X99834285Y-117034819D02*
X99262857Y-117034819D01*
X99548571Y-117034819D02*
X99548571Y-116034819D01*
X99548571Y-116034819D02*
X99453333Y-116177676D01*
X99453333Y-116177676D02*
X99358095Y-116272914D01*
X99358095Y-116272914D02*
X99262857Y-116320533D01*
X100381904Y-76485180D02*
X100381904Y-75675657D01*
X100381904Y-75675657D02*
X100334285Y-75580419D01*
X100334285Y-75580419D02*
X100286666Y-75532800D01*
X100286666Y-75532800D02*
X100191428Y-75485180D01*
X100191428Y-75485180D02*
X100000952Y-75485180D01*
X100000952Y-75485180D02*
X99905714Y-75532800D01*
X99905714Y-75532800D02*
X99858095Y-75580419D01*
X99858095Y-75580419D02*
X99810476Y-75675657D01*
X99810476Y-75675657D02*
X99810476Y-76485180D01*
X99381904Y-75532800D02*
X99239047Y-75485180D01*
X99239047Y-75485180D02*
X99000952Y-75485180D01*
X99000952Y-75485180D02*
X98905714Y-75532800D01*
X98905714Y-75532800D02*
X98858095Y-75580419D01*
X98858095Y-75580419D02*
X98810476Y-75675657D01*
X98810476Y-75675657D02*
X98810476Y-75770895D01*
X98810476Y-75770895D02*
X98858095Y-75866133D01*
X98858095Y-75866133D02*
X98905714Y-75913752D01*
X98905714Y-75913752D02*
X99000952Y-75961371D01*
X99000952Y-75961371D02*
X99191428Y-76008990D01*
X99191428Y-76008990D02*
X99286666Y-76056609D01*
X99286666Y-76056609D02*
X99334285Y-76104228D01*
X99334285Y-76104228D02*
X99381904Y-76199466D01*
X99381904Y-76199466D02*
X99381904Y-76294704D01*
X99381904Y-76294704D02*
X99334285Y-76389942D01*
X99334285Y-76389942D02*
X99286666Y-76437561D01*
X99286666Y-76437561D02*
X99191428Y-76485180D01*
X99191428Y-76485180D02*
X98953333Y-76485180D01*
X98953333Y-76485180D02*
X98810476Y-76437561D01*
X98048571Y-76008990D02*
X97905714Y-75961371D01*
X97905714Y-75961371D02*
X97858095Y-75913752D01*
X97858095Y-75913752D02*
X97810476Y-75818514D01*
X97810476Y-75818514D02*
X97810476Y-75675657D01*
X97810476Y-75675657D02*
X97858095Y-75580419D01*
X97858095Y-75580419D02*
X97905714Y-75532800D01*
X97905714Y-75532800D02*
X98000952Y-75485180D01*
X98000952Y-75485180D02*
X98381904Y-75485180D01*
X98381904Y-75485180D02*
X98381904Y-76485180D01*
X98381904Y-76485180D02*
X98048571Y-76485180D01*
X98048571Y-76485180D02*
X97953333Y-76437561D01*
X97953333Y-76437561D02*
X97905714Y-76389942D01*
X97905714Y-76389942D02*
X97858095Y-76294704D01*
X97858095Y-76294704D02*
X97858095Y-76199466D01*
X97858095Y-76199466D02*
X97905714Y-76104228D01*
X97905714Y-76104228D02*
X97953333Y-76056609D01*
X97953333Y-76056609D02*
X98048571Y-76008990D01*
X98048571Y-76008990D02*
X98381904Y-76008990D01*
G04 #@! TO.C,UP*
D13*
X129750000Y-99500000D02*
X129750000Y-101000000D01*
X131000000Y-103500000D02*
X135500000Y-103500000D01*
X135500000Y-97000000D02*
X131000000Y-97000000D01*
X136750000Y-101000000D02*
X136750000Y-99500000D01*
G04 #@! TO.C,R4*
X116820000Y-74500000D02*
X117770000Y-74500000D01*
X122560000Y-74500000D02*
X121610000Y-74500000D01*
X117770000Y-73580000D02*
X121610000Y-73580000D01*
X121610000Y-75420000D01*
X117770000Y-75420000D01*
X117770000Y-73580000D01*
G04 #@! TO.C,C2*
X120630000Y-98030000D02*
X120960000Y-98030000D01*
X120630000Y-102970000D02*
X120630000Y-98030000D01*
X120960000Y-102970000D02*
X120630000Y-102970000D01*
X123040000Y-98030000D02*
X123370000Y-98030000D01*
X123370000Y-98030000D02*
X123370000Y-102970000D01*
X123370000Y-102970000D02*
X123040000Y-102970000D01*
G04 #@! TO.C,U1*
D12*
X66454000Y-96426000D02*
X86454000Y-96426000D01*
X66454000Y-116426000D02*
X66454000Y-96426000D01*
X86454000Y-96426000D02*
X86454000Y-116426000D01*
X86454000Y-116426000D02*
X66454000Y-116426000D01*
G04 #@! TO.C,ALARM*
D13*
X134005000Y-77491000D02*
X134005000Y-74401000D01*
X128455000Y-75946000D02*
G75*
G02*
X134005000Y-74401170I2990000J0D01*
G01*
X134005000Y-77490830D02*
G75*
G02*
X128455000Y-75946000I-2560000J1544830D01*
G01*
X133945000Y-75946000D02*
G75*
G02*
X128945000Y-75946000I-2500000J0D01*
G01*
X128945000Y-75946000D02*
G75*
G02*
X133945000Y-75946000I2500000J0D01*
G01*
G04 #@! TO.C,R3*
X116000000Y-84320000D02*
X116000000Y-85270000D01*
X116000000Y-90060000D02*
X116000000Y-89110000D01*
X115080000Y-85270000D02*
X116920000Y-85270000D01*
X116920000Y-89110000D01*
X115080000Y-89110000D01*
X115080000Y-85270000D01*
G04 #@! TO.C,R1*
X115880000Y-108320000D02*
X115880000Y-109270000D01*
X115880000Y-114060000D02*
X115880000Y-113110000D01*
X114960000Y-109270000D02*
X116800000Y-109270000D01*
X116800000Y-113110000D01*
X114960000Y-113110000D01*
X114960000Y-109270000D01*
G04 #@! TO.C,C1*
X120630000Y-110030000D02*
X120960000Y-110030000D01*
X120630000Y-114970000D02*
X120630000Y-110030000D01*
X120960000Y-114970000D02*
X120630000Y-114970000D01*
X123040000Y-110030000D02*
X123370000Y-110030000D01*
X123370000Y-110030000D02*
X123370000Y-114970000D01*
X123370000Y-114970000D02*
X123040000Y-114970000D01*
G04 #@! TO.C,C3*
X120630000Y-85530000D02*
X120960000Y-85530000D01*
X120630000Y-90470000D02*
X120630000Y-85530000D01*
X120960000Y-90470000D02*
X120630000Y-90470000D01*
X123040000Y-85530000D02*
X123370000Y-85530000D01*
X123370000Y-85530000D02*
X123370000Y-90470000D01*
X123370000Y-90470000D02*
X123040000Y-90470000D01*
G04 #@! TO.C,DOWN*
X129750000Y-111500000D02*
X129750000Y-113000000D01*
X131000000Y-115500000D02*
X135500000Y-115500000D01*
X135500000Y-109000000D02*
X131000000Y-109000000D01*
X136750000Y-113000000D02*
X136750000Y-111500000D01*
G04 #@! TO.C,MENU*
X129750000Y-87500000D02*
X129750000Y-89000000D01*
X131000000Y-91500000D02*
X135500000Y-91500000D01*
X135500000Y-85000000D02*
X131000000Y-85000000D01*
X136750000Y-89000000D02*
X136750000Y-87500000D01*
G04 #@! TO.C,U2*
D12*
X66421000Y-70772000D02*
X86421000Y-70772000D01*
X66421000Y-90772000D02*
X66421000Y-70772000D01*
X86421000Y-70772000D02*
X86421000Y-90772000D01*
X86421000Y-90772000D02*
X66421000Y-90772000D01*
G04 #@! TO.C,R2*
D13*
X116000000Y-96820000D02*
X116000000Y-97770000D01*
X116000000Y-102560000D02*
X116000000Y-101610000D01*
X115080000Y-97770000D02*
X116920000Y-97770000D01*
X116920000Y-101610000D01*
X115080000Y-101610000D01*
X115080000Y-97770000D01*
G04 #@! TO.C,A1*
X90100000Y-72000000D02*
X90100000Y-115440000D01*
X90100000Y-72000000D02*
X95180000Y-72000000D01*
X90100000Y-115440000D02*
X108140000Y-115440000D01*
X92770000Y-74670000D02*
X90100000Y-74670000D01*
X92770000Y-112770000D02*
X90100000Y-112770000D01*
X92770000Y-112770000D02*
X92770000Y-74670000D01*
X95180000Y-69460000D02*
X103060000Y-69460000D01*
X95180000Y-79880000D02*
X95180000Y-69460000D01*
X103060000Y-69460000D02*
X103060000Y-79880000D01*
X103060000Y-79880000D02*
X95180000Y-79880000D01*
X105470000Y-74670000D02*
X108140000Y-74670000D01*
X105470000Y-110230000D02*
X105470000Y-74670000D01*
X105470000Y-110230000D02*
X105470000Y-112770000D01*
X105470000Y-110230000D02*
X108140000Y-110230000D01*
X105470000Y-112770000D02*
X108140000Y-112770000D01*
X108140000Y-72000000D02*
X103060000Y-72000000D01*
X108140000Y-110230000D02*
X108140000Y-72000000D01*
X108140000Y-115440000D02*
X108140000Y-112770000D01*
G04 #@! TD*
M02*
