G04 #@! TF.GenerationSoftware,KiCad,Pcbnew,10.0.4*
G04 #@! TF.CreationDate,2026-07-14T09:36:39+03:00*
G04 #@! TF.ProjectId,pcb,7063622e-6b69-4636-9164-5f7063625858,rev?*
G04 #@! TF.SameCoordinates,Original*
G04 #@! TF.FileFunction,Copper,L2,Inr*
G04 #@! TF.FilePolarity,Positive*
%FSLAX46Y46*%
G04 Gerber Fmt 4.6, Leading zero omitted, Abs format (unit mm)*
G04 Created by KiCad (PCBNEW 10.0.4) date 2026-07-14 09:36:39*
%MOMM*%
%LPD*%
G01*
G04 APERTURE LIST*
G04 Aperture macros list*
%AMRoundRect*
0 Rectangle with rounded corners*
0 $1 Rounding radius*
0 $2 $3 $4 $5 $6 $7 $8 $9 X,Y pos of 4 corners*
0 Add a 4 corners polygon primitive as box body*
4,1,4,$2,$3,$4,$5,$6,$7,$8,$9,$2,$3,0*
0 Add four circle primitives for the rounded corners*
1,1,$1+$1,$2,$3*
1,1,$1+$1,$4,$5*
1,1,$1+$1,$6,$7*
1,1,$1+$1,$8,$9*
0 Add four rect primitives between the rounded corners*
20,1,$1+$1,$2,$3,$4,$5,0*
20,1,$1+$1,$4,$5,$6,$7,0*
20,1,$1+$1,$6,$7,$8,$9,0*
20,1,$1+$1,$8,$9,$2,$3,0*%
G04 Aperture macros list end*
G04 #@! TA.AperFunction,WasherPad*
%ADD10C,2.100000*%
G04 #@! TD*
G04 #@! TA.AperFunction,ComponentPad*
%ADD11C,2.000000*%
G04 #@! TD*
G04 #@! TA.AperFunction,ComponentPad*
%ADD12C,1.400000*%
G04 #@! TD*
G04 #@! TA.AperFunction,ComponentPad*
%ADD13C,1.600000*%
G04 #@! TD*
G04 #@! TA.AperFunction,ComponentPad*
%ADD14RoundRect,0.190500X-0.444500X-0.444500X0.444500X-0.444500X0.444500X0.444500X-0.444500X0.444500X0*%
G04 #@! TD*
G04 #@! TA.AperFunction,ComponentPad*
%ADD15R,1.800000X1.800000*%
G04 #@! TD*
G04 #@! TA.AperFunction,ComponentPad*
%ADD16C,1.800000*%
G04 #@! TD*
G04 #@! TA.AperFunction,ComponentPad*
%ADD17R,1.600000X1.600000*%
G04 #@! TD*
G04 #@! TA.AperFunction,ComponentPad*
%ADD18O,1.600000X1.600000*%
G04 #@! TD*
G04 #@! TA.AperFunction,ViaPad*
%ADD19C,0.600000*%
G04 #@! TD*
G04 APERTURE END LIST*
D10*
G04 #@! TO.N,*
G04 #@! TO.C,REF\u002A\u002A*
X136525000Y-69215000D03*
G04 #@! TD*
G04 #@! TO.N,*
G04 #@! TO.C,REF\u002A\u002A*
X111379000Y-116205000D03*
G04 #@! TD*
D11*
G04 #@! TO.N,GND*
G04 #@! TO.C,UP*
X130000000Y-98000000D03*
X136500000Y-98000000D03*
G04 #@! TO.N,Net-(A1-D3)*
X130000000Y-102500000D03*
X136500000Y-102500000D03*
G04 #@! TD*
D12*
G04 #@! TO.N,Net-(A1-D12)*
G04 #@! TO.C,R4*
X115880000Y-74500000D03*
G04 #@! TO.N,Net-(D1-A)*
X123500000Y-74500000D03*
G04 #@! TD*
D13*
G04 #@! TO.N,Net-(A1-D3)*
G04 #@! TO.C,C2*
X122000000Y-103000000D03*
G04 #@! TO.N,GND*
X122000000Y-98000000D03*
G04 #@! TD*
D10*
G04 #@! TO.N,*
G04 #@! TO.C,REF\u002A\u002A*
X68326000Y-93726000D03*
G04 #@! TD*
D14*
G04 #@! TO.N,unconnected-(U1-INT-Pad1)*
G04 #@! TO.C,U1*
X69596000Y-98552000D03*
G04 #@! TO.N,Net-(A1-A4)*
X73152000Y-98552000D03*
G04 #@! TO.N,Net-(A1-A5)*
X76454000Y-98552000D03*
G04 #@! TO.N,GND*
X80264000Y-98552000D03*
G04 #@! TO.N,+5V*
X84074000Y-98552000D03*
G04 #@! TD*
D10*
G04 #@! TO.N,*
G04 #@! TO.C,REF\u002A\u002A*
X112014000Y-78994000D03*
G04 #@! TD*
G04 #@! TO.N,*
G04 #@! TO.C,REF\u002A\u002A*
X124333000Y-69342000D03*
G04 #@! TD*
D15*
G04 #@! TO.N,GND*
G04 #@! TO.C,ALARM*
X132715000Y-75946000D03*
D16*
G04 #@! TO.N,Net-(D1-A)*
X130175000Y-75946000D03*
G04 #@! TD*
D12*
G04 #@! TO.N,+5V*
G04 #@! TO.C,R3*
X116000000Y-91000000D03*
G04 #@! TO.N,Net-(A1-D4)*
X116000000Y-83380000D03*
G04 #@! TD*
G04 #@! TO.N,+5V*
G04 #@! TO.C,R1*
X115880000Y-115000000D03*
G04 #@! TO.N,Net-(A1-D2)*
X115880000Y-107380000D03*
G04 #@! TD*
D13*
G04 #@! TO.N,Net-(A1-D2)*
G04 #@! TO.C,C1*
X122000000Y-115000000D03*
G04 #@! TO.N,GND*
X122000000Y-110000000D03*
G04 #@! TD*
G04 #@! TO.N,Net-(A1-D4)*
G04 #@! TO.C,C3*
X122000000Y-90500000D03*
G04 #@! TO.N,GND*
X122000000Y-85500000D03*
G04 #@! TD*
D11*
G04 #@! TO.N,GND*
G04 #@! TO.C,DOWN*
X130000000Y-110000000D03*
X136500000Y-110000000D03*
G04 #@! TO.N,Net-(A1-D2)*
X130000000Y-114500000D03*
X136500000Y-114500000D03*
G04 #@! TD*
G04 #@! TO.N,GND*
G04 #@! TO.C,MENU*
X130000000Y-86000000D03*
X136500000Y-86000000D03*
G04 #@! TO.N,Net-(A1-D4)*
X130000000Y-90500000D03*
X136500000Y-90500000D03*
G04 #@! TD*
D14*
G04 #@! TO.N,GND*
G04 #@! TO.C,U2*
X78613000Y-72898000D03*
G04 #@! TO.N,+5V*
X82423000Y-72898000D03*
G04 #@! TO.N,Net-(A1-A5)*
X74803000Y-72898000D03*
G04 #@! TO.N,Net-(A1-A4)*
X71501000Y-72898000D03*
G04 #@! TD*
D12*
G04 #@! TO.N,+5V*
G04 #@! TO.C,R2*
X116000000Y-103500000D03*
G04 #@! TO.N,Net-(A1-D3)*
X116000000Y-95880000D03*
G04 #@! TD*
D17*
G04 #@! TO.N,unconnected-(A1-D1{slash}TX-Pad1)*
G04 #@! TO.C,A1*
X106740000Y-111500000D03*
D18*
G04 #@! TO.N,unconnected-(A1-D0{slash}RX-Pad2)*
X106740000Y-108960000D03*
G04 #@! TO.N,unconnected-(A1-~{RESET}-Pad3)*
X106740000Y-106420000D03*
G04 #@! TO.N,GND*
X106740000Y-103880000D03*
G04 #@! TO.N,Net-(A1-D2)*
X106740000Y-101340000D03*
G04 #@! TO.N,Net-(A1-D3)*
X106740000Y-98800000D03*
G04 #@! TO.N,Net-(A1-D4)*
X106740000Y-96260000D03*
G04 #@! TO.N,unconnected-(A1-D5-Pad8)*
X106740000Y-93720000D03*
G04 #@! TO.N,unconnected-(A1-D6-Pad9)*
X106740000Y-91180000D03*
G04 #@! TO.N,unconnected-(A1-D7-Pad10)*
X106740000Y-88640000D03*
G04 #@! TO.N,unconnected-(A1-D8-Pad11)*
X106740000Y-86100000D03*
G04 #@! TO.N,unconnected-(A1-D9-Pad12)*
X106740000Y-83560000D03*
G04 #@! TO.N,unconnected-(A1-D10-Pad13)*
X106740000Y-81020000D03*
G04 #@! TO.N,unconnected-(A1-D11-Pad14)*
X106740000Y-78480000D03*
G04 #@! TO.N,Net-(A1-D12)*
X106740000Y-75940000D03*
G04 #@! TO.N,unconnected-(A1-D13-Pad16)*
X91500000Y-75940000D03*
G04 #@! TO.N,unconnected-(A1-3V3-Pad17)*
X91500000Y-78480000D03*
G04 #@! TO.N,unconnected-(A1-AREF-Pad18)*
X91500000Y-81020000D03*
G04 #@! TO.N,unconnected-(A1-A0-Pad19)*
X91500000Y-83560000D03*
G04 #@! TO.N,unconnected-(A1-A1-Pad20)*
X91500000Y-86100000D03*
G04 #@! TO.N,unconnected-(A1-A2-Pad21)*
X91500000Y-88640000D03*
G04 #@! TO.N,unconnected-(A1-A3-Pad22)*
X91500000Y-91180000D03*
G04 #@! TO.N,Net-(A1-A4)*
X91500000Y-93720000D03*
G04 #@! TO.N,Net-(A1-A5)*
X91500000Y-96260000D03*
G04 #@! TO.N,unconnected-(A1-A6-Pad25)*
X91500000Y-98800000D03*
G04 #@! TO.N,unconnected-(A1-A7-Pad26)*
X91500000Y-101340000D03*
G04 #@! TO.N,+5V*
X91500000Y-103880000D03*
G04 #@! TO.N,unconnected-(A1-~{RESET}-Pad28)*
X91500000Y-106420000D03*
G04 #@! TO.N,GND*
X91500000Y-108960000D03*
G04 #@! TO.N,unconnected-(A1-VIN-Pad30)*
X91500000Y-111500000D03*
G04 #@! TD*
D19*
G04 #@! TO.N,Net-(A1-D3)*
X122000000Y-103000000D03*
G04 #@! TO.N,Net-(A1-A4)*
X84582000Y-93726000D03*
G04 #@! TO.N,Net-(A1-A5)*
X88011000Y-96266000D03*
G04 #@! TO.N,+5V*
X116000000Y-103500000D03*
X114046000Y-104648000D03*
G04 #@! TO.N,Net-(A1-D2)*
X115880000Y-107380000D03*
G04 #@! TD*
M02*
