G04 #@! TF.GenerationSoftware,KiCad,Pcbnew,10.0.4*
G04 #@! TF.CreationDate,2026-07-14T09:36:39+03:00*
G04 #@! TF.ProjectId,pcb,7063622e-6b69-4636-9164-5f7063625858,rev?*
G04 #@! TF.SameCoordinates,Original*
G04 #@! TF.FileFunction,Soldermask,Top*
G04 #@! TF.FilePolarity,Negative*
%FSLAX46Y46*%
G04 Gerber Fmt 4.6, Leading zero omitted, Abs format (unit mm)*
G04 Created by KiCad (PCBNEW 10.0.4) date 2026-07-14 09:36:39*
%MOMM*%
%LPD*%
G01*
G04 APERTURE LIST*
G04 APERTURE END LIST*
G36*
X111471687Y-115160056D02*
G01*
X111481918Y-115160056D01*
X111521893Y-115168007D01*
X111624074Y-115184191D01*
X111656943Y-115194870D01*
X111683799Y-115200213D01*
X111721700Y-115215912D01*
X111780741Y-115235096D01*
X111836052Y-115263278D01*
X111873967Y-115278983D01*
X111896742Y-115294201D01*
X111927528Y-115309887D01*
X112011217Y-115370690D01*
X112045113Y-115393339D01*
X112052347Y-115400573D01*
X112060798Y-115406713D01*
X112177286Y-115523201D01*
X112183425Y-115531651D01*
X112190661Y-115538887D01*
X112213312Y-115572787D01*
X112274112Y-115656471D01*
X112289796Y-115687254D01*
X112305017Y-115710033D01*
X112320723Y-115747952D01*
X112348903Y-115803258D01*
X112368084Y-115862292D01*
X112383787Y-115900201D01*
X112389130Y-115927062D01*
X112399808Y-115959925D01*
X112415990Y-116062098D01*
X112423944Y-116102082D01*
X112423944Y-116112313D01*
X112425578Y-116122630D01*
X112425578Y-116287369D01*
X112423944Y-116297685D01*
X112423944Y-116307918D01*
X112415990Y-116347905D01*
X112399808Y-116450074D01*
X112389130Y-116482935D01*
X112383787Y-116509799D01*
X112368083Y-116547711D01*
X112348903Y-116606741D01*
X112320726Y-116662041D01*
X112305017Y-116699967D01*
X112289794Y-116722749D01*
X112274112Y-116753528D01*
X112213320Y-116837200D01*
X112190661Y-116871113D01*
X112183423Y-116878350D01*
X112177286Y-116886798D01*
X112060798Y-117003286D01*
X112052350Y-117009423D01*
X112045113Y-117016661D01*
X112011200Y-117039320D01*
X111927528Y-117100112D01*
X111896749Y-117115794D01*
X111873967Y-117131017D01*
X111836041Y-117146726D01*
X111780741Y-117174903D01*
X111721711Y-117194083D01*
X111683799Y-117209787D01*
X111656935Y-117215130D01*
X111624074Y-117225808D01*
X111521902Y-117241990D01*
X111481918Y-117249944D01*
X111471687Y-117249944D01*
X111461370Y-117251578D01*
X111296630Y-117251578D01*
X111286313Y-117249944D01*
X111276082Y-117249944D01*
X111236098Y-117241990D01*
X111133925Y-117225808D01*
X111101062Y-117215130D01*
X111074201Y-117209787D01*
X111036292Y-117194084D01*
X110977258Y-117174903D01*
X110921952Y-117146723D01*
X110884033Y-117131017D01*
X110861254Y-117115796D01*
X110830471Y-117100112D01*
X110746787Y-117039312D01*
X110712887Y-117016661D01*
X110705651Y-117009425D01*
X110697201Y-117003286D01*
X110580713Y-116886798D01*
X110574573Y-116878347D01*
X110567339Y-116871113D01*
X110544690Y-116837217D01*
X110483887Y-116753528D01*
X110468201Y-116722742D01*
X110452983Y-116699967D01*
X110437278Y-116662052D01*
X110409096Y-116606741D01*
X110389912Y-116547700D01*
X110374213Y-116509799D01*
X110368870Y-116482943D01*
X110358191Y-116450074D01*
X110342008Y-116347895D01*
X110334056Y-116307918D01*
X110334056Y-116297686D01*
X110332422Y-116287369D01*
X110332422Y-116122630D01*
X110334056Y-116112312D01*
X110334056Y-116102082D01*
X110342007Y-116062108D01*
X110358191Y-115959925D01*
X110368871Y-115927054D01*
X110374213Y-115900201D01*
X110389910Y-115862303D01*
X110409096Y-115803258D01*
X110437280Y-115747942D01*
X110452983Y-115710033D01*
X110468199Y-115687260D01*
X110483887Y-115656471D01*
X110544699Y-115572770D01*
X110567339Y-115538887D01*
X110574570Y-115531655D01*
X110580713Y-115523201D01*
X110697201Y-115406713D01*
X110705655Y-115400570D01*
X110712887Y-115393339D01*
X110746770Y-115370699D01*
X110830471Y-115309887D01*
X110861260Y-115294199D01*
X110884033Y-115278983D01*
X110921942Y-115263280D01*
X110977258Y-115235096D01*
X111036303Y-115215910D01*
X111074201Y-115200213D01*
X111101054Y-115194871D01*
X111133925Y-115184191D01*
X111236108Y-115168007D01*
X111276082Y-115160056D01*
X111286313Y-115160056D01*
X111296630Y-115158422D01*
X111461370Y-115158422D01*
X111471687Y-115160056D01*
G37*
G36*
X122232228Y-114234448D02*
G01*
X122377117Y-114294463D01*
X122507515Y-114381592D01*
X122618408Y-114492485D01*
X122705537Y-114622883D01*
X122765552Y-114767772D01*
X122796148Y-114921586D01*
X122796148Y-115078414D01*
X122765552Y-115232228D01*
X122705537Y-115377117D01*
X122618408Y-115507515D01*
X122507515Y-115618408D01*
X122377117Y-115705537D01*
X122232228Y-115765552D01*
X122078414Y-115796148D01*
X121921586Y-115796148D01*
X121767772Y-115765552D01*
X121622883Y-115705537D01*
X121492485Y-115618408D01*
X121381592Y-115507515D01*
X121294463Y-115377117D01*
X121234448Y-115232228D01*
X121203852Y-115078414D01*
X121203852Y-114921586D01*
X121234448Y-114767772D01*
X121294463Y-114622883D01*
X121381592Y-114492485D01*
X121492485Y-114381592D01*
X121622883Y-114294463D01*
X121767772Y-114234448D01*
X121921586Y-114203852D01*
X122078414Y-114203852D01*
X122232228Y-114234448D01*
G37*
G36*
X116083199Y-114330142D02*
G01*
X116209978Y-114382655D01*
X116324075Y-114458893D01*
X116421107Y-114555925D01*
X116497345Y-114670022D01*
X116549858Y-114796801D01*
X116576629Y-114931388D01*
X116576629Y-115068612D01*
X116549858Y-115203199D01*
X116497345Y-115329978D01*
X116421107Y-115444075D01*
X116324075Y-115541107D01*
X116209978Y-115617345D01*
X116083199Y-115669858D01*
X115948612Y-115696629D01*
X115811388Y-115696629D01*
X115676801Y-115669858D01*
X115550022Y-115617345D01*
X115435925Y-115541107D01*
X115338893Y-115444075D01*
X115262655Y-115329978D01*
X115210142Y-115203199D01*
X115183371Y-115068612D01*
X115183371Y-114931388D01*
X115210142Y-114796801D01*
X115262655Y-114670022D01*
X115338893Y-114555925D01*
X115435925Y-114458893D01*
X115550022Y-114382655D01*
X115676801Y-114330142D01*
X115811388Y-114303371D01*
X115948612Y-114303371D01*
X116083199Y-114330142D01*
G37*
G36*
X130290285Y-113543060D02*
G01*
X130471397Y-113618079D01*
X130634393Y-113726990D01*
X130773010Y-113865607D01*
X130881921Y-114028603D01*
X130956940Y-114209715D01*
X130995185Y-114401983D01*
X130995185Y-114598017D01*
X130956940Y-114790285D01*
X130881921Y-114971397D01*
X130773010Y-115134393D01*
X130634393Y-115273010D01*
X130471397Y-115381921D01*
X130290285Y-115456940D01*
X130098017Y-115495185D01*
X129901983Y-115495185D01*
X129709715Y-115456940D01*
X129528603Y-115381921D01*
X129365607Y-115273010D01*
X129226990Y-115134393D01*
X129118079Y-114971397D01*
X129043060Y-114790285D01*
X129004815Y-114598017D01*
X129004815Y-114401983D01*
X129043060Y-114209715D01*
X129118079Y-114028603D01*
X129226990Y-113865607D01*
X129365607Y-113726990D01*
X129528603Y-113618079D01*
X129709715Y-113543060D01*
X129901983Y-113504815D01*
X130098017Y-113504815D01*
X130290285Y-113543060D01*
G37*
G36*
X136790285Y-113543060D02*
G01*
X136971397Y-113618079D01*
X137134393Y-113726990D01*
X137273010Y-113865607D01*
X137381921Y-114028603D01*
X137456940Y-114209715D01*
X137495185Y-114401983D01*
X137495185Y-114598017D01*
X137456940Y-114790285D01*
X137381921Y-114971397D01*
X137273010Y-115134393D01*
X137134393Y-115273010D01*
X136971397Y-115381921D01*
X136790285Y-115456940D01*
X136598017Y-115495185D01*
X136401983Y-115495185D01*
X136209715Y-115456940D01*
X136028603Y-115381921D01*
X135865607Y-115273010D01*
X135726990Y-115134393D01*
X135618079Y-114971397D01*
X135543060Y-114790285D01*
X135504815Y-114598017D01*
X135504815Y-114401983D01*
X135543060Y-114209715D01*
X135618079Y-114028603D01*
X135726990Y-113865607D01*
X135865607Y-113726990D01*
X136028603Y-113618079D01*
X136209715Y-113543060D01*
X136401983Y-113504815D01*
X136598017Y-113504815D01*
X136790285Y-113543060D01*
G37*
G36*
X107540000Y-112300000D02*
G01*
X105940000Y-112300000D01*
X105940000Y-110700000D01*
X107540000Y-110700000D01*
X107540000Y-112300000D01*
G37*
G36*
X91732228Y-110734448D02*
G01*
X91877117Y-110794463D01*
X92007515Y-110881592D01*
X92118408Y-110992485D01*
X92205537Y-111122883D01*
X92265552Y-111267772D01*
X92296148Y-111421586D01*
X92296148Y-111578414D01*
X92265552Y-111732228D01*
X92205537Y-111877117D01*
X92118408Y-112007515D01*
X92007515Y-112118408D01*
X91877117Y-112205537D01*
X91732228Y-112265552D01*
X91578414Y-112296148D01*
X91421586Y-112296148D01*
X91267772Y-112265552D01*
X91122883Y-112205537D01*
X90992485Y-112118408D01*
X90881592Y-112007515D01*
X90794463Y-111877117D01*
X90734448Y-111732228D01*
X90703852Y-111578414D01*
X90703852Y-111421586D01*
X90734448Y-111267772D01*
X90794463Y-111122883D01*
X90881592Y-110992485D01*
X90992485Y-110881592D01*
X91122883Y-110794463D01*
X91267772Y-110734448D01*
X91421586Y-110703852D01*
X91578414Y-110703852D01*
X91732228Y-110734448D01*
G37*
G36*
X130290285Y-109043060D02*
G01*
X130471397Y-109118079D01*
X130634393Y-109226990D01*
X130773010Y-109365607D01*
X130881921Y-109528603D01*
X130956940Y-109709715D01*
X130995185Y-109901983D01*
X130995185Y-110098017D01*
X130956940Y-110290285D01*
X130881921Y-110471397D01*
X130773010Y-110634393D01*
X130634393Y-110773010D01*
X130471397Y-110881921D01*
X130290285Y-110956940D01*
X130098017Y-110995185D01*
X129901983Y-110995185D01*
X129709715Y-110956940D01*
X129528603Y-110881921D01*
X129365607Y-110773010D01*
X129226990Y-110634393D01*
X129118079Y-110471397D01*
X129043060Y-110290285D01*
X129004815Y-110098017D01*
X129004815Y-109901983D01*
X129043060Y-109709715D01*
X129118079Y-109528603D01*
X129226990Y-109365607D01*
X129365607Y-109226990D01*
X129528603Y-109118079D01*
X129709715Y-109043060D01*
X129901983Y-109004815D01*
X130098017Y-109004815D01*
X130290285Y-109043060D01*
G37*
G36*
X136790285Y-109043060D02*
G01*
X136971397Y-109118079D01*
X137134393Y-109226990D01*
X137273010Y-109365607D01*
X137381921Y-109528603D01*
X137456940Y-109709715D01*
X137495185Y-109901983D01*
X137495185Y-110098017D01*
X137456940Y-110290285D01*
X137381921Y-110471397D01*
X137273010Y-110634393D01*
X137134393Y-110773010D01*
X136971397Y-110881921D01*
X136790285Y-110956940D01*
X136598017Y-110995185D01*
X136401983Y-110995185D01*
X136209715Y-110956940D01*
X136028603Y-110881921D01*
X135865607Y-110773010D01*
X135726990Y-110634393D01*
X135618079Y-110471397D01*
X135543060Y-110290285D01*
X135504815Y-110098017D01*
X135504815Y-109901983D01*
X135543060Y-109709715D01*
X135618079Y-109528603D01*
X135726990Y-109365607D01*
X135865607Y-109226990D01*
X136028603Y-109118079D01*
X136209715Y-109043060D01*
X136401983Y-109004815D01*
X136598017Y-109004815D01*
X136790285Y-109043060D01*
G37*
G36*
X122232228Y-109234448D02*
G01*
X122377117Y-109294463D01*
X122507515Y-109381592D01*
X122618408Y-109492485D01*
X122705537Y-109622883D01*
X122765552Y-109767772D01*
X122796148Y-109921586D01*
X122796148Y-110078414D01*
X122765552Y-110232228D01*
X122705537Y-110377117D01*
X122618408Y-110507515D01*
X122507515Y-110618408D01*
X122377117Y-110705537D01*
X122232228Y-110765552D01*
X122078414Y-110796148D01*
X121921586Y-110796148D01*
X121767772Y-110765552D01*
X121622883Y-110705537D01*
X121492485Y-110618408D01*
X121381592Y-110507515D01*
X121294463Y-110377117D01*
X121234448Y-110232228D01*
X121203852Y-110078414D01*
X121203852Y-109921586D01*
X121234448Y-109767772D01*
X121294463Y-109622883D01*
X121381592Y-109492485D01*
X121492485Y-109381592D01*
X121622883Y-109294463D01*
X121767772Y-109234448D01*
X121921586Y-109203852D01*
X122078414Y-109203852D01*
X122232228Y-109234448D01*
G37*
G36*
X91732228Y-108194448D02*
G01*
X91877117Y-108254463D01*
X92007515Y-108341592D01*
X92118408Y-108452485D01*
X92205537Y-108582883D01*
X92265552Y-108727772D01*
X92296148Y-108881586D01*
X92296148Y-109038414D01*
X92265552Y-109192228D01*
X92205537Y-109337117D01*
X92118408Y-109467515D01*
X92007515Y-109578408D01*
X91877117Y-109665537D01*
X91732228Y-109725552D01*
X91578414Y-109756148D01*
X91421586Y-109756148D01*
X91267772Y-109725552D01*
X91122883Y-109665537D01*
X90992485Y-109578408D01*
X90881592Y-109467515D01*
X90794463Y-109337117D01*
X90734448Y-109192228D01*
X90703852Y-109038414D01*
X90703852Y-108881586D01*
X90734448Y-108727772D01*
X90794463Y-108582883D01*
X90881592Y-108452485D01*
X90992485Y-108341592D01*
X91122883Y-108254463D01*
X91267772Y-108194448D01*
X91421586Y-108163852D01*
X91578414Y-108163852D01*
X91732228Y-108194448D01*
G37*
G36*
X106972228Y-108194448D02*
G01*
X107117117Y-108254463D01*
X107247515Y-108341592D01*
X107358408Y-108452485D01*
X107445537Y-108582883D01*
X107505552Y-108727772D01*
X107536148Y-108881586D01*
X107536148Y-109038414D01*
X107505552Y-109192228D01*
X107445537Y-109337117D01*
X107358408Y-109467515D01*
X107247515Y-109578408D01*
X107117117Y-109665537D01*
X106972228Y-109725552D01*
X106818414Y-109756148D01*
X106661586Y-109756148D01*
X106507772Y-109725552D01*
X106362883Y-109665537D01*
X106232485Y-109578408D01*
X106121592Y-109467515D01*
X106034463Y-109337117D01*
X105974448Y-109192228D01*
X105943852Y-109038414D01*
X105943852Y-108881586D01*
X105974448Y-108727772D01*
X106034463Y-108582883D01*
X106121592Y-108452485D01*
X106232485Y-108341592D01*
X106362883Y-108254463D01*
X106507772Y-108194448D01*
X106661586Y-108163852D01*
X106818414Y-108163852D01*
X106972228Y-108194448D01*
G37*
G36*
X116083199Y-106710142D02*
G01*
X116209978Y-106762655D01*
X116324075Y-106838893D01*
X116421107Y-106935925D01*
X116497345Y-107050022D01*
X116549858Y-107176801D01*
X116576629Y-107311388D01*
X116576629Y-107448612D01*
X116549858Y-107583199D01*
X116497345Y-107709978D01*
X116421107Y-107824075D01*
X116324075Y-107921107D01*
X116209978Y-107997345D01*
X116083199Y-108049858D01*
X115948612Y-108076629D01*
X115811388Y-108076629D01*
X115676801Y-108049858D01*
X115550022Y-107997345D01*
X115435925Y-107921107D01*
X115338893Y-107824075D01*
X115262655Y-107709978D01*
X115210142Y-107583199D01*
X115183371Y-107448612D01*
X115183371Y-107311388D01*
X115210142Y-107176801D01*
X115262655Y-107050022D01*
X115338893Y-106935925D01*
X115435925Y-106838893D01*
X115550022Y-106762655D01*
X115676801Y-106710142D01*
X115811388Y-106683371D01*
X115948612Y-106683371D01*
X116083199Y-106710142D01*
G37*
G36*
X91732228Y-105654448D02*
G01*
X91877117Y-105714463D01*
X92007515Y-105801592D01*
X92118408Y-105912485D01*
X92205537Y-106042883D01*
X92265552Y-106187772D01*
X92296148Y-106341586D01*
X92296148Y-106498414D01*
X92265552Y-106652228D01*
X92205537Y-106797117D01*
X92118408Y-106927515D01*
X92007515Y-107038408D01*
X91877117Y-107125537D01*
X91732228Y-107185552D01*
X91578414Y-107216148D01*
X91421586Y-107216148D01*
X91267772Y-107185552D01*
X91122883Y-107125537D01*
X90992485Y-107038408D01*
X90881592Y-106927515D01*
X90794463Y-106797117D01*
X90734448Y-106652228D01*
X90703852Y-106498414D01*
X90703852Y-106341586D01*
X90734448Y-106187772D01*
X90794463Y-106042883D01*
X90881592Y-105912485D01*
X90992485Y-105801592D01*
X91122883Y-105714463D01*
X91267772Y-105654448D01*
X91421586Y-105623852D01*
X91578414Y-105623852D01*
X91732228Y-105654448D01*
G37*
G36*
X106972228Y-105654448D02*
G01*
X107117117Y-105714463D01*
X107247515Y-105801592D01*
X107358408Y-105912485D01*
X107445537Y-106042883D01*
X107505552Y-106187772D01*
X107536148Y-106341586D01*
X107536148Y-106498414D01*
X107505552Y-106652228D01*
X107445537Y-106797117D01*
X107358408Y-106927515D01*
X107247515Y-107038408D01*
X107117117Y-107125537D01*
X106972228Y-107185552D01*
X106818414Y-107216148D01*
X106661586Y-107216148D01*
X106507772Y-107185552D01*
X106362883Y-107125537D01*
X106232485Y-107038408D01*
X106121592Y-106927515D01*
X106034463Y-106797117D01*
X105974448Y-106652228D01*
X105943852Y-106498414D01*
X105943852Y-106341586D01*
X105974448Y-106187772D01*
X106034463Y-106042883D01*
X106121592Y-105912485D01*
X106232485Y-105801592D01*
X106362883Y-105714463D01*
X106507772Y-105654448D01*
X106661586Y-105623852D01*
X106818414Y-105623852D01*
X106972228Y-105654448D01*
G37*
G36*
X91732228Y-103114448D02*
G01*
X91877117Y-103174463D01*
X92007515Y-103261592D01*
X92118408Y-103372485D01*
X92205537Y-103502883D01*
X92265552Y-103647772D01*
X92296148Y-103801586D01*
X92296148Y-103958414D01*
X92265552Y-104112228D01*
X92205537Y-104257117D01*
X92118408Y-104387515D01*
X92007515Y-104498408D01*
X91877117Y-104585537D01*
X91732228Y-104645552D01*
X91578414Y-104676148D01*
X91421586Y-104676148D01*
X91267772Y-104645552D01*
X91122883Y-104585537D01*
X90992485Y-104498408D01*
X90881592Y-104387515D01*
X90794463Y-104257117D01*
X90734448Y-104112228D01*
X90703852Y-103958414D01*
X90703852Y-103801586D01*
X90734448Y-103647772D01*
X90794463Y-103502883D01*
X90881592Y-103372485D01*
X90992485Y-103261592D01*
X91122883Y-103174463D01*
X91267772Y-103114448D01*
X91421586Y-103083852D01*
X91578414Y-103083852D01*
X91732228Y-103114448D01*
G37*
G36*
X106972228Y-103114448D02*
G01*
X107117117Y-103174463D01*
X107247515Y-103261592D01*
X107358408Y-103372485D01*
X107445537Y-103502883D01*
X107505552Y-103647772D01*
X107536148Y-103801586D01*
X107536148Y-103958414D01*
X107505552Y-104112228D01*
X107445537Y-104257117D01*
X107358408Y-104387515D01*
X107247515Y-104498408D01*
X107117117Y-104585537D01*
X106972228Y-104645552D01*
X106818414Y-104676148D01*
X106661586Y-104676148D01*
X106507772Y-104645552D01*
X106362883Y-104585537D01*
X106232485Y-104498408D01*
X106121592Y-104387515D01*
X106034463Y-104257117D01*
X105974448Y-104112228D01*
X105943852Y-103958414D01*
X105943852Y-103801586D01*
X105974448Y-103647772D01*
X106034463Y-103502883D01*
X106121592Y-103372485D01*
X106232485Y-103261592D01*
X106362883Y-103174463D01*
X106507772Y-103114448D01*
X106661586Y-103083852D01*
X106818414Y-103083852D01*
X106972228Y-103114448D01*
G37*
G36*
X116203199Y-102830142D02*
G01*
X116329978Y-102882655D01*
X116444075Y-102958893D01*
X116541107Y-103055925D01*
X116617345Y-103170022D01*
X116669858Y-103296801D01*
X116696629Y-103431388D01*
X116696629Y-103568612D01*
X116669858Y-103703199D01*
X116617345Y-103829978D01*
X116541107Y-103944075D01*
X116444075Y-104041107D01*
X116329978Y-104117345D01*
X116203199Y-104169858D01*
X116068612Y-104196629D01*
X115931388Y-104196629D01*
X115796801Y-104169858D01*
X115670022Y-104117345D01*
X115555925Y-104041107D01*
X115458893Y-103944075D01*
X115382655Y-103829978D01*
X115330142Y-103703199D01*
X115303371Y-103568612D01*
X115303371Y-103431388D01*
X115330142Y-103296801D01*
X115382655Y-103170022D01*
X115458893Y-103055925D01*
X115555925Y-102958893D01*
X115670022Y-102882655D01*
X115796801Y-102830142D01*
X115931388Y-102803371D01*
X116068612Y-102803371D01*
X116203199Y-102830142D01*
G37*
G36*
X122232228Y-102234448D02*
G01*
X122377117Y-102294463D01*
X122507515Y-102381592D01*
X122618408Y-102492485D01*
X122705537Y-102622883D01*
X122765552Y-102767772D01*
X122796148Y-102921586D01*
X122796148Y-103078414D01*
X122765552Y-103232228D01*
X122705537Y-103377117D01*
X122618408Y-103507515D01*
X122507515Y-103618408D01*
X122377117Y-103705537D01*
X122232228Y-103765552D01*
X122078414Y-103796148D01*
X121921586Y-103796148D01*
X121767772Y-103765552D01*
X121622883Y-103705537D01*
X121492485Y-103618408D01*
X121381592Y-103507515D01*
X121294463Y-103377117D01*
X121234448Y-103232228D01*
X121203852Y-103078414D01*
X121203852Y-102921586D01*
X121234448Y-102767772D01*
X121294463Y-102622883D01*
X121381592Y-102492485D01*
X121492485Y-102381592D01*
X121622883Y-102294463D01*
X121767772Y-102234448D01*
X121921586Y-102203852D01*
X122078414Y-102203852D01*
X122232228Y-102234448D01*
G37*
G36*
X130290285Y-101543060D02*
G01*
X130471397Y-101618079D01*
X130634393Y-101726990D01*
X130773010Y-101865607D01*
X130881921Y-102028603D01*
X130956940Y-102209715D01*
X130995185Y-102401983D01*
X130995185Y-102598017D01*
X130956940Y-102790285D01*
X130881921Y-102971397D01*
X130773010Y-103134393D01*
X130634393Y-103273010D01*
X130471397Y-103381921D01*
X130290285Y-103456940D01*
X130098017Y-103495185D01*
X129901983Y-103495185D01*
X129709715Y-103456940D01*
X129528603Y-103381921D01*
X129365607Y-103273010D01*
X129226990Y-103134393D01*
X129118079Y-102971397D01*
X129043060Y-102790285D01*
X129004815Y-102598017D01*
X129004815Y-102401983D01*
X129043060Y-102209715D01*
X129118079Y-102028603D01*
X129226990Y-101865607D01*
X129365607Y-101726990D01*
X129528603Y-101618079D01*
X129709715Y-101543060D01*
X129901983Y-101504815D01*
X130098017Y-101504815D01*
X130290285Y-101543060D01*
G37*
G36*
X136790285Y-101543060D02*
G01*
X136971397Y-101618079D01*
X137134393Y-101726990D01*
X137273010Y-101865607D01*
X137381921Y-102028603D01*
X137456940Y-102209715D01*
X137495185Y-102401983D01*
X137495185Y-102598017D01*
X137456940Y-102790285D01*
X137381921Y-102971397D01*
X137273010Y-103134393D01*
X137134393Y-103273010D01*
X136971397Y-103381921D01*
X136790285Y-103456940D01*
X136598017Y-103495185D01*
X136401983Y-103495185D01*
X136209715Y-103456940D01*
X136028603Y-103381921D01*
X135865607Y-103273010D01*
X135726990Y-103134393D01*
X135618079Y-102971397D01*
X135543060Y-102790285D01*
X135504815Y-102598017D01*
X135504815Y-102401983D01*
X135543060Y-102209715D01*
X135618079Y-102028603D01*
X135726990Y-101865607D01*
X135865607Y-101726990D01*
X136028603Y-101618079D01*
X136209715Y-101543060D01*
X136401983Y-101504815D01*
X136598017Y-101504815D01*
X136790285Y-101543060D01*
G37*
G36*
X91732228Y-100574448D02*
G01*
X91877117Y-100634463D01*
X92007515Y-100721592D01*
X92118408Y-100832485D01*
X92205537Y-100962883D01*
X92265552Y-101107772D01*
X92296148Y-101261586D01*
X92296148Y-101418414D01*
X92265552Y-101572228D01*
X92205537Y-101717117D01*
X92118408Y-101847515D01*
X92007515Y-101958408D01*
X91877117Y-102045537D01*
X91732228Y-102105552D01*
X91578414Y-102136148D01*
X91421586Y-102136148D01*
X91267772Y-102105552D01*
X91122883Y-102045537D01*
X90992485Y-101958408D01*
X90881592Y-101847515D01*
X90794463Y-101717117D01*
X90734448Y-101572228D01*
X90703852Y-101418414D01*
X90703852Y-101261586D01*
X90734448Y-101107772D01*
X90794463Y-100962883D01*
X90881592Y-100832485D01*
X90992485Y-100721592D01*
X91122883Y-100634463D01*
X91267772Y-100574448D01*
X91421586Y-100543852D01*
X91578414Y-100543852D01*
X91732228Y-100574448D01*
G37*
G36*
X106972228Y-100574448D02*
G01*
X107117117Y-100634463D01*
X107247515Y-100721592D01*
X107358408Y-100832485D01*
X107445537Y-100962883D01*
X107505552Y-101107772D01*
X107536148Y-101261586D01*
X107536148Y-101418414D01*
X107505552Y-101572228D01*
X107445537Y-101717117D01*
X107358408Y-101847515D01*
X107247515Y-101958408D01*
X107117117Y-102045537D01*
X106972228Y-102105552D01*
X106818414Y-102136148D01*
X106661586Y-102136148D01*
X106507772Y-102105552D01*
X106362883Y-102045537D01*
X106232485Y-101958408D01*
X106121592Y-101847515D01*
X106034463Y-101717117D01*
X105974448Y-101572228D01*
X105943852Y-101418414D01*
X105943852Y-101261586D01*
X105974448Y-101107772D01*
X106034463Y-100962883D01*
X106121592Y-100832485D01*
X106232485Y-100721592D01*
X106362883Y-100634463D01*
X106507772Y-100574448D01*
X106661586Y-100543852D01*
X106818414Y-100543852D01*
X106972228Y-100574448D01*
G37*
G36*
X91732228Y-98034448D02*
G01*
X91877117Y-98094463D01*
X92007515Y-98181592D01*
X92118408Y-98292485D01*
X92205537Y-98422883D01*
X92265552Y-98567772D01*
X92296148Y-98721586D01*
X92296148Y-98878414D01*
X92265552Y-99032228D01*
X92205537Y-99177117D01*
X92118408Y-99307515D01*
X92007515Y-99418408D01*
X91877117Y-99505537D01*
X91732228Y-99565552D01*
X91578414Y-99596148D01*
X91421586Y-99596148D01*
X91267772Y-99565552D01*
X91122883Y-99505537D01*
X90992485Y-99418408D01*
X90881592Y-99307515D01*
X90794463Y-99177117D01*
X90734448Y-99032228D01*
X90703852Y-98878414D01*
X90703852Y-98721586D01*
X90734448Y-98567772D01*
X90794463Y-98422883D01*
X90881592Y-98292485D01*
X90992485Y-98181592D01*
X91122883Y-98094463D01*
X91267772Y-98034448D01*
X91421586Y-98003852D01*
X91578414Y-98003852D01*
X91732228Y-98034448D01*
G37*
G36*
X106972228Y-98034448D02*
G01*
X107117117Y-98094463D01*
X107247515Y-98181592D01*
X107358408Y-98292485D01*
X107445537Y-98422883D01*
X107505552Y-98567772D01*
X107536148Y-98721586D01*
X107536148Y-98878414D01*
X107505552Y-99032228D01*
X107445537Y-99177117D01*
X107358408Y-99307515D01*
X107247515Y-99418408D01*
X107117117Y-99505537D01*
X106972228Y-99565552D01*
X106818414Y-99596148D01*
X106661586Y-99596148D01*
X106507772Y-99565552D01*
X106362883Y-99505537D01*
X106232485Y-99418408D01*
X106121592Y-99307515D01*
X106034463Y-99177117D01*
X105974448Y-99032228D01*
X105943852Y-98878414D01*
X105943852Y-98721586D01*
X105974448Y-98567772D01*
X106034463Y-98422883D01*
X106121592Y-98292485D01*
X106232485Y-98181592D01*
X106362883Y-98094463D01*
X106507772Y-98034448D01*
X106661586Y-98003852D01*
X106818414Y-98003852D01*
X106972228Y-98034448D01*
G37*
G36*
X70113401Y-97931501D02*
G01*
X70175204Y-97972796D01*
X70216499Y-98034599D01*
X70231000Y-98107500D01*
X70231000Y-98996500D01*
X70216499Y-99069401D01*
X70175204Y-99131204D01*
X70113401Y-99172499D01*
X70040500Y-99187000D01*
X69151500Y-99187000D01*
X69078599Y-99172499D01*
X69016796Y-99131204D01*
X68975501Y-99069401D01*
X68961000Y-98996500D01*
X68961000Y-98107500D01*
X68975501Y-98034599D01*
X69016796Y-97972796D01*
X69078599Y-97931501D01*
X69151500Y-97917000D01*
X70040500Y-97917000D01*
X70113401Y-97931501D01*
G37*
G36*
X73669401Y-97931501D02*
G01*
X73731204Y-97972796D01*
X73772499Y-98034599D01*
X73787000Y-98107500D01*
X73787000Y-98996500D01*
X73772499Y-99069401D01*
X73731204Y-99131204D01*
X73669401Y-99172499D01*
X73596500Y-99187000D01*
X72707500Y-99187000D01*
X72634599Y-99172499D01*
X72572796Y-99131204D01*
X72531501Y-99069401D01*
X72517000Y-98996500D01*
X72517000Y-98107500D01*
X72531501Y-98034599D01*
X72572796Y-97972796D01*
X72634599Y-97931501D01*
X72707500Y-97917000D01*
X73596500Y-97917000D01*
X73669401Y-97931501D01*
G37*
G36*
X76971401Y-97931501D02*
G01*
X77033204Y-97972796D01*
X77074499Y-98034599D01*
X77089000Y-98107500D01*
X77089000Y-98996500D01*
X77074499Y-99069401D01*
X77033204Y-99131204D01*
X76971401Y-99172499D01*
X76898500Y-99187000D01*
X76009500Y-99187000D01*
X75936599Y-99172499D01*
X75874796Y-99131204D01*
X75833501Y-99069401D01*
X75819000Y-98996500D01*
X75819000Y-98107500D01*
X75833501Y-98034599D01*
X75874796Y-97972796D01*
X75936599Y-97931501D01*
X76009500Y-97917000D01*
X76898500Y-97917000D01*
X76971401Y-97931501D01*
G37*
G36*
X80781401Y-97931501D02*
G01*
X80843204Y-97972796D01*
X80884499Y-98034599D01*
X80899000Y-98107500D01*
X80899000Y-98996500D01*
X80884499Y-99069401D01*
X80843204Y-99131204D01*
X80781401Y-99172499D01*
X80708500Y-99187000D01*
X79819500Y-99187000D01*
X79746599Y-99172499D01*
X79684796Y-99131204D01*
X79643501Y-99069401D01*
X79629000Y-98996500D01*
X79629000Y-98107500D01*
X79643501Y-98034599D01*
X79684796Y-97972796D01*
X79746599Y-97931501D01*
X79819500Y-97917000D01*
X80708500Y-97917000D01*
X80781401Y-97931501D01*
G37*
G36*
X84591401Y-97931501D02*
G01*
X84653204Y-97972796D01*
X84694499Y-98034599D01*
X84709000Y-98107500D01*
X84709000Y-98996500D01*
X84694499Y-99069401D01*
X84653204Y-99131204D01*
X84591401Y-99172499D01*
X84518500Y-99187000D01*
X83629500Y-99187000D01*
X83556599Y-99172499D01*
X83494796Y-99131204D01*
X83453501Y-99069401D01*
X83439000Y-98996500D01*
X83439000Y-98107500D01*
X83453501Y-98034599D01*
X83494796Y-97972796D01*
X83556599Y-97931501D01*
X83629500Y-97917000D01*
X84518500Y-97917000D01*
X84591401Y-97931501D01*
G37*
G36*
X130290285Y-97043060D02*
G01*
X130471397Y-97118079D01*
X130634393Y-97226990D01*
X130773010Y-97365607D01*
X130881921Y-97528603D01*
X130956940Y-97709715D01*
X130995185Y-97901983D01*
X130995185Y-98098017D01*
X130956940Y-98290285D01*
X130881921Y-98471397D01*
X130773010Y-98634393D01*
X130634393Y-98773010D01*
X130471397Y-98881921D01*
X130290285Y-98956940D01*
X130098017Y-98995185D01*
X129901983Y-98995185D01*
X129709715Y-98956940D01*
X129528603Y-98881921D01*
X129365607Y-98773010D01*
X129226990Y-98634393D01*
X129118079Y-98471397D01*
X129043060Y-98290285D01*
X129004815Y-98098017D01*
X129004815Y-97901983D01*
X129043060Y-97709715D01*
X129118079Y-97528603D01*
X129226990Y-97365607D01*
X129365607Y-97226990D01*
X129528603Y-97118079D01*
X129709715Y-97043060D01*
X129901983Y-97004815D01*
X130098017Y-97004815D01*
X130290285Y-97043060D01*
G37*
G36*
X136790285Y-97043060D02*
G01*
X136971397Y-97118079D01*
X137134393Y-97226990D01*
X137273010Y-97365607D01*
X137381921Y-97528603D01*
X137456940Y-97709715D01*
X137495185Y-97901983D01*
X137495185Y-98098017D01*
X137456940Y-98290285D01*
X137381921Y-98471397D01*
X137273010Y-98634393D01*
X137134393Y-98773010D01*
X136971397Y-98881921D01*
X136790285Y-98956940D01*
X136598017Y-98995185D01*
X136401983Y-98995185D01*
X136209715Y-98956940D01*
X136028603Y-98881921D01*
X135865607Y-98773010D01*
X135726990Y-98634393D01*
X135618079Y-98471397D01*
X135543060Y-98290285D01*
X135504815Y-98098017D01*
X135504815Y-97901983D01*
X135543060Y-97709715D01*
X135618079Y-97528603D01*
X135726990Y-97365607D01*
X135865607Y-97226990D01*
X136028603Y-97118079D01*
X136209715Y-97043060D01*
X136401983Y-97004815D01*
X136598017Y-97004815D01*
X136790285Y-97043060D01*
G37*
G36*
X122232228Y-97234448D02*
G01*
X122377117Y-97294463D01*
X122507515Y-97381592D01*
X122618408Y-97492485D01*
X122705537Y-97622883D01*
X122765552Y-97767772D01*
X122796148Y-97921586D01*
X122796148Y-98078414D01*
X122765552Y-98232228D01*
X122705537Y-98377117D01*
X122618408Y-98507515D01*
X122507515Y-98618408D01*
X122377117Y-98705537D01*
X122232228Y-98765552D01*
X122078414Y-98796148D01*
X121921586Y-98796148D01*
X121767772Y-98765552D01*
X121622883Y-98705537D01*
X121492485Y-98618408D01*
X121381592Y-98507515D01*
X121294463Y-98377117D01*
X121234448Y-98232228D01*
X121203852Y-98078414D01*
X121203852Y-97921586D01*
X121234448Y-97767772D01*
X121294463Y-97622883D01*
X121381592Y-97492485D01*
X121492485Y-97381592D01*
X121622883Y-97294463D01*
X121767772Y-97234448D01*
X121921586Y-97203852D01*
X122078414Y-97203852D01*
X122232228Y-97234448D01*
G37*
G36*
X91732228Y-95494448D02*
G01*
X91877117Y-95554463D01*
X92007515Y-95641592D01*
X92118408Y-95752485D01*
X92205537Y-95882883D01*
X92265552Y-96027772D01*
X92296148Y-96181586D01*
X92296148Y-96338414D01*
X92265552Y-96492228D01*
X92205537Y-96637117D01*
X92118408Y-96767515D01*
X92007515Y-96878408D01*
X91877117Y-96965537D01*
X91732228Y-97025552D01*
X91578414Y-97056148D01*
X91421586Y-97056148D01*
X91267772Y-97025552D01*
X91122883Y-96965537D01*
X90992485Y-96878408D01*
X90881592Y-96767515D01*
X90794463Y-96637117D01*
X90734448Y-96492228D01*
X90703852Y-96338414D01*
X90703852Y-96181586D01*
X90734448Y-96027772D01*
X90794463Y-95882883D01*
X90881592Y-95752485D01*
X90992485Y-95641592D01*
X91122883Y-95554463D01*
X91267772Y-95494448D01*
X91421586Y-95463852D01*
X91578414Y-95463852D01*
X91732228Y-95494448D01*
G37*
G36*
X106972228Y-95494448D02*
G01*
X107117117Y-95554463D01*
X107247515Y-95641592D01*
X107358408Y-95752485D01*
X107445537Y-95882883D01*
X107505552Y-96027772D01*
X107536148Y-96181586D01*
X107536148Y-96338414D01*
X107505552Y-96492228D01*
X107445537Y-96637117D01*
X107358408Y-96767515D01*
X107247515Y-96878408D01*
X107117117Y-96965537D01*
X106972228Y-97025552D01*
X106818414Y-97056148D01*
X106661586Y-97056148D01*
X106507772Y-97025552D01*
X106362883Y-96965537D01*
X106232485Y-96878408D01*
X106121592Y-96767515D01*
X106034463Y-96637117D01*
X105974448Y-96492228D01*
X105943852Y-96338414D01*
X105943852Y-96181586D01*
X105974448Y-96027772D01*
X106034463Y-95882883D01*
X106121592Y-95752485D01*
X106232485Y-95641592D01*
X106362883Y-95554463D01*
X106507772Y-95494448D01*
X106661586Y-95463852D01*
X106818414Y-95463852D01*
X106972228Y-95494448D01*
G37*
G36*
X116203199Y-95210142D02*
G01*
X116329978Y-95262655D01*
X116444075Y-95338893D01*
X116541107Y-95435925D01*
X116617345Y-95550022D01*
X116669858Y-95676801D01*
X116696629Y-95811388D01*
X116696629Y-95948612D01*
X116669858Y-96083199D01*
X116617345Y-96209978D01*
X116541107Y-96324075D01*
X116444075Y-96421107D01*
X116329978Y-96497345D01*
X116203199Y-96549858D01*
X116068612Y-96576629D01*
X115931388Y-96576629D01*
X115796801Y-96549858D01*
X115670022Y-96497345D01*
X115555925Y-96421107D01*
X115458893Y-96324075D01*
X115382655Y-96209978D01*
X115330142Y-96083199D01*
X115303371Y-95948612D01*
X115303371Y-95811388D01*
X115330142Y-95676801D01*
X115382655Y-95550022D01*
X115458893Y-95435925D01*
X115555925Y-95338893D01*
X115670022Y-95262655D01*
X115796801Y-95210142D01*
X115931388Y-95183371D01*
X116068612Y-95183371D01*
X116203199Y-95210142D01*
G37*
G36*
X68418687Y-92681056D02*
G01*
X68428918Y-92681056D01*
X68468893Y-92689007D01*
X68571074Y-92705191D01*
X68603943Y-92715870D01*
X68630799Y-92721213D01*
X68668700Y-92736912D01*
X68727741Y-92756096D01*
X68783052Y-92784278D01*
X68820967Y-92799983D01*
X68843742Y-92815201D01*
X68874528Y-92830887D01*
X68958217Y-92891690D01*
X68992113Y-92914339D01*
X68999347Y-92921573D01*
X69007798Y-92927713D01*
X69124286Y-93044201D01*
X69130425Y-93052651D01*
X69137661Y-93059887D01*
X69160312Y-93093787D01*
X69221112Y-93177471D01*
X69236796Y-93208254D01*
X69252017Y-93231033D01*
X69267723Y-93268952D01*
X69295903Y-93324258D01*
X69315084Y-93383292D01*
X69330787Y-93421201D01*
X69336130Y-93448062D01*
X69346808Y-93480925D01*
X69362990Y-93583098D01*
X69370944Y-93623082D01*
X69370944Y-93633313D01*
X69372578Y-93643630D01*
X69372578Y-93808369D01*
X69370944Y-93818685D01*
X69370944Y-93828918D01*
X69362990Y-93868905D01*
X69346808Y-93971074D01*
X69336130Y-94003935D01*
X69330787Y-94030799D01*
X69315083Y-94068711D01*
X69295903Y-94127741D01*
X69267726Y-94183041D01*
X69252017Y-94220967D01*
X69236794Y-94243749D01*
X69221112Y-94274528D01*
X69160320Y-94358200D01*
X69137661Y-94392113D01*
X69130423Y-94399350D01*
X69124286Y-94407798D01*
X69007798Y-94524286D01*
X68999350Y-94530423D01*
X68992113Y-94537661D01*
X68958200Y-94560320D01*
X68874528Y-94621112D01*
X68843749Y-94636794D01*
X68820967Y-94652017D01*
X68783041Y-94667726D01*
X68727741Y-94695903D01*
X68668711Y-94715083D01*
X68630799Y-94730787D01*
X68603935Y-94736130D01*
X68571074Y-94746808D01*
X68468902Y-94762990D01*
X68428918Y-94770944D01*
X68418687Y-94770944D01*
X68408370Y-94772578D01*
X68243630Y-94772578D01*
X68233313Y-94770944D01*
X68223082Y-94770944D01*
X68183098Y-94762990D01*
X68080925Y-94746808D01*
X68048062Y-94736130D01*
X68021201Y-94730787D01*
X67983292Y-94715084D01*
X67924258Y-94695903D01*
X67868952Y-94667723D01*
X67831033Y-94652017D01*
X67808254Y-94636796D01*
X67777471Y-94621112D01*
X67693787Y-94560312D01*
X67659887Y-94537661D01*
X67652651Y-94530425D01*
X67644201Y-94524286D01*
X67527713Y-94407798D01*
X67521573Y-94399347D01*
X67514339Y-94392113D01*
X67491690Y-94358217D01*
X67430887Y-94274528D01*
X67415201Y-94243742D01*
X67399983Y-94220967D01*
X67384278Y-94183052D01*
X67356096Y-94127741D01*
X67336912Y-94068700D01*
X67321213Y-94030799D01*
X67315870Y-94003943D01*
X67305191Y-93971074D01*
X67289008Y-93868895D01*
X67281056Y-93828918D01*
X67281056Y-93818686D01*
X67279422Y-93808369D01*
X67279422Y-93643630D01*
X67281056Y-93633312D01*
X67281056Y-93623082D01*
X67289007Y-93583108D01*
X67305191Y-93480925D01*
X67315871Y-93448054D01*
X67321213Y-93421201D01*
X67336910Y-93383303D01*
X67356096Y-93324258D01*
X67384280Y-93268942D01*
X67399983Y-93231033D01*
X67415199Y-93208260D01*
X67430887Y-93177471D01*
X67491699Y-93093770D01*
X67514339Y-93059887D01*
X67521570Y-93052655D01*
X67527713Y-93044201D01*
X67644201Y-92927713D01*
X67652655Y-92921570D01*
X67659887Y-92914339D01*
X67693770Y-92891699D01*
X67777471Y-92830887D01*
X67808260Y-92815199D01*
X67831033Y-92799983D01*
X67868942Y-92784280D01*
X67924258Y-92756096D01*
X67983303Y-92736910D01*
X68021201Y-92721213D01*
X68048054Y-92715871D01*
X68080925Y-92705191D01*
X68183108Y-92689007D01*
X68223082Y-92681056D01*
X68233313Y-92681056D01*
X68243630Y-92679422D01*
X68408370Y-92679422D01*
X68418687Y-92681056D01*
G37*
G36*
X91732228Y-92954448D02*
G01*
X91877117Y-93014463D01*
X92007515Y-93101592D01*
X92118408Y-93212485D01*
X92205537Y-93342883D01*
X92265552Y-93487772D01*
X92296148Y-93641586D01*
X92296148Y-93798414D01*
X92265552Y-93952228D01*
X92205537Y-94097117D01*
X92118408Y-94227515D01*
X92007515Y-94338408D01*
X91877117Y-94425537D01*
X91732228Y-94485552D01*
X91578414Y-94516148D01*
X91421586Y-94516148D01*
X91267772Y-94485552D01*
X91122883Y-94425537D01*
X90992485Y-94338408D01*
X90881592Y-94227515D01*
X90794463Y-94097117D01*
X90734448Y-93952228D01*
X90703852Y-93798414D01*
X90703852Y-93641586D01*
X90734448Y-93487772D01*
X90794463Y-93342883D01*
X90881592Y-93212485D01*
X90992485Y-93101592D01*
X91122883Y-93014463D01*
X91267772Y-92954448D01*
X91421586Y-92923852D01*
X91578414Y-92923852D01*
X91732228Y-92954448D01*
G37*
G36*
X106972228Y-92954448D02*
G01*
X107117117Y-93014463D01*
X107247515Y-93101592D01*
X107358408Y-93212485D01*
X107445537Y-93342883D01*
X107505552Y-93487772D01*
X107536148Y-93641586D01*
X107536148Y-93798414D01*
X107505552Y-93952228D01*
X107445537Y-94097117D01*
X107358408Y-94227515D01*
X107247515Y-94338408D01*
X107117117Y-94425537D01*
X106972228Y-94485552D01*
X106818414Y-94516148D01*
X106661586Y-94516148D01*
X106507772Y-94485552D01*
X106362883Y-94425537D01*
X106232485Y-94338408D01*
X106121592Y-94227515D01*
X106034463Y-94097117D01*
X105974448Y-93952228D01*
X105943852Y-93798414D01*
X105943852Y-93641586D01*
X105974448Y-93487772D01*
X106034463Y-93342883D01*
X106121592Y-93212485D01*
X106232485Y-93101592D01*
X106362883Y-93014463D01*
X106507772Y-92954448D01*
X106661586Y-92923852D01*
X106818414Y-92923852D01*
X106972228Y-92954448D01*
G37*
G36*
X91732228Y-90414448D02*
G01*
X91877117Y-90474463D01*
X92007515Y-90561592D01*
X92118408Y-90672485D01*
X92205537Y-90802883D01*
X92265552Y-90947772D01*
X92296148Y-91101586D01*
X92296148Y-91258414D01*
X92265552Y-91412228D01*
X92205537Y-91557117D01*
X92118408Y-91687515D01*
X92007515Y-91798408D01*
X91877117Y-91885537D01*
X91732228Y-91945552D01*
X91578414Y-91976148D01*
X91421586Y-91976148D01*
X91267772Y-91945552D01*
X91122883Y-91885537D01*
X90992485Y-91798408D01*
X90881592Y-91687515D01*
X90794463Y-91557117D01*
X90734448Y-91412228D01*
X90703852Y-91258414D01*
X90703852Y-91101586D01*
X90734448Y-90947772D01*
X90794463Y-90802883D01*
X90881592Y-90672485D01*
X90992485Y-90561592D01*
X91122883Y-90474463D01*
X91267772Y-90414448D01*
X91421586Y-90383852D01*
X91578414Y-90383852D01*
X91732228Y-90414448D01*
G37*
G36*
X106972228Y-90414448D02*
G01*
X107117117Y-90474463D01*
X107247515Y-90561592D01*
X107358408Y-90672485D01*
X107445537Y-90802883D01*
X107505552Y-90947772D01*
X107536148Y-91101586D01*
X107536148Y-91258414D01*
X107505552Y-91412228D01*
X107445537Y-91557117D01*
X107358408Y-91687515D01*
X107247515Y-91798408D01*
X107117117Y-91885537D01*
X106972228Y-91945552D01*
X106818414Y-91976148D01*
X106661586Y-91976148D01*
X106507772Y-91945552D01*
X106362883Y-91885537D01*
X106232485Y-91798408D01*
X106121592Y-91687515D01*
X106034463Y-91557117D01*
X105974448Y-91412228D01*
X105943852Y-91258414D01*
X105943852Y-91101586D01*
X105974448Y-90947772D01*
X106034463Y-90802883D01*
X106121592Y-90672485D01*
X106232485Y-90561592D01*
X106362883Y-90474463D01*
X106507772Y-90414448D01*
X106661586Y-90383852D01*
X106818414Y-90383852D01*
X106972228Y-90414448D01*
G37*
G36*
X116203199Y-90330142D02*
G01*
X116329978Y-90382655D01*
X116444075Y-90458893D01*
X116541107Y-90555925D01*
X116617345Y-90670022D01*
X116669858Y-90796801D01*
X116696629Y-90931388D01*
X116696629Y-91068612D01*
X116669858Y-91203199D01*
X116617345Y-91329978D01*
X116541107Y-91444075D01*
X116444075Y-91541107D01*
X116329978Y-91617345D01*
X116203199Y-91669858D01*
X116068612Y-91696629D01*
X115931388Y-91696629D01*
X115796801Y-91669858D01*
X115670022Y-91617345D01*
X115555925Y-91541107D01*
X115458893Y-91444075D01*
X115382655Y-91329978D01*
X115330142Y-91203199D01*
X115303371Y-91068612D01*
X115303371Y-90931388D01*
X115330142Y-90796801D01*
X115382655Y-90670022D01*
X115458893Y-90555925D01*
X115555925Y-90458893D01*
X115670022Y-90382655D01*
X115796801Y-90330142D01*
X115931388Y-90303371D01*
X116068612Y-90303371D01*
X116203199Y-90330142D01*
G37*
G36*
X130290285Y-89543060D02*
G01*
X130471397Y-89618079D01*
X130634393Y-89726990D01*
X130773010Y-89865607D01*
X130881921Y-90028603D01*
X130956940Y-90209715D01*
X130995185Y-90401983D01*
X130995185Y-90598017D01*
X130956940Y-90790285D01*
X130881921Y-90971397D01*
X130773010Y-91134393D01*
X130634393Y-91273010D01*
X130471397Y-91381921D01*
X130290285Y-91456940D01*
X130098017Y-91495185D01*
X129901983Y-91495185D01*
X129709715Y-91456940D01*
X129528603Y-91381921D01*
X129365607Y-91273010D01*
X129226990Y-91134393D01*
X129118079Y-90971397D01*
X129043060Y-90790285D01*
X129004815Y-90598017D01*
X129004815Y-90401983D01*
X129043060Y-90209715D01*
X129118079Y-90028603D01*
X129226990Y-89865607D01*
X129365607Y-89726990D01*
X129528603Y-89618079D01*
X129709715Y-89543060D01*
X129901983Y-89504815D01*
X130098017Y-89504815D01*
X130290285Y-89543060D01*
G37*
G36*
X136790285Y-89543060D02*
G01*
X136971397Y-89618079D01*
X137134393Y-89726990D01*
X137273010Y-89865607D01*
X137381921Y-90028603D01*
X137456940Y-90209715D01*
X137495185Y-90401983D01*
X137495185Y-90598017D01*
X137456940Y-90790285D01*
X137381921Y-90971397D01*
X137273010Y-91134393D01*
X137134393Y-91273010D01*
X136971397Y-91381921D01*
X136790285Y-91456940D01*
X136598017Y-91495185D01*
X136401983Y-91495185D01*
X136209715Y-91456940D01*
X136028603Y-91381921D01*
X135865607Y-91273010D01*
X135726990Y-91134393D01*
X135618079Y-90971397D01*
X135543060Y-90790285D01*
X135504815Y-90598017D01*
X135504815Y-90401983D01*
X135543060Y-90209715D01*
X135618079Y-90028603D01*
X135726990Y-89865607D01*
X135865607Y-89726990D01*
X136028603Y-89618079D01*
X136209715Y-89543060D01*
X136401983Y-89504815D01*
X136598017Y-89504815D01*
X136790285Y-89543060D01*
G37*
G36*
X122232228Y-89734448D02*
G01*
X122377117Y-89794463D01*
X122507515Y-89881592D01*
X122618408Y-89992485D01*
X122705537Y-90122883D01*
X122765552Y-90267772D01*
X122796148Y-90421586D01*
X122796148Y-90578414D01*
X122765552Y-90732228D01*
X122705537Y-90877117D01*
X122618408Y-91007515D01*
X122507515Y-91118408D01*
X122377117Y-91205537D01*
X122232228Y-91265552D01*
X122078414Y-91296148D01*
X121921586Y-91296148D01*
X121767772Y-91265552D01*
X121622883Y-91205537D01*
X121492485Y-91118408D01*
X121381592Y-91007515D01*
X121294463Y-90877117D01*
X121234448Y-90732228D01*
X121203852Y-90578414D01*
X121203852Y-90421586D01*
X121234448Y-90267772D01*
X121294463Y-90122883D01*
X121381592Y-89992485D01*
X121492485Y-89881592D01*
X121622883Y-89794463D01*
X121767772Y-89734448D01*
X121921586Y-89703852D01*
X122078414Y-89703852D01*
X122232228Y-89734448D01*
G37*
G36*
X91732228Y-87874448D02*
G01*
X91877117Y-87934463D01*
X92007515Y-88021592D01*
X92118408Y-88132485D01*
X92205537Y-88262883D01*
X92265552Y-88407772D01*
X92296148Y-88561586D01*
X92296148Y-88718414D01*
X92265552Y-88872228D01*
X92205537Y-89017117D01*
X92118408Y-89147515D01*
X92007515Y-89258408D01*
X91877117Y-89345537D01*
X91732228Y-89405552D01*
X91578414Y-89436148D01*
X91421586Y-89436148D01*
X91267772Y-89405552D01*
X91122883Y-89345537D01*
X90992485Y-89258408D01*
X90881592Y-89147515D01*
X90794463Y-89017117D01*
X90734448Y-88872228D01*
X90703852Y-88718414D01*
X90703852Y-88561586D01*
X90734448Y-88407772D01*
X90794463Y-88262883D01*
X90881592Y-88132485D01*
X90992485Y-88021592D01*
X91122883Y-87934463D01*
X91267772Y-87874448D01*
X91421586Y-87843852D01*
X91578414Y-87843852D01*
X91732228Y-87874448D01*
G37*
G36*
X106972228Y-87874448D02*
G01*
X107117117Y-87934463D01*
X107247515Y-88021592D01*
X107358408Y-88132485D01*
X107445537Y-88262883D01*
X107505552Y-88407772D01*
X107536148Y-88561586D01*
X107536148Y-88718414D01*
X107505552Y-88872228D01*
X107445537Y-89017117D01*
X107358408Y-89147515D01*
X107247515Y-89258408D01*
X107117117Y-89345537D01*
X106972228Y-89405552D01*
X106818414Y-89436148D01*
X106661586Y-89436148D01*
X106507772Y-89405552D01*
X106362883Y-89345537D01*
X106232485Y-89258408D01*
X106121592Y-89147515D01*
X106034463Y-89017117D01*
X105974448Y-88872228D01*
X105943852Y-88718414D01*
X105943852Y-88561586D01*
X105974448Y-88407772D01*
X106034463Y-88262883D01*
X106121592Y-88132485D01*
X106232485Y-88021592D01*
X106362883Y-87934463D01*
X106507772Y-87874448D01*
X106661586Y-87843852D01*
X106818414Y-87843852D01*
X106972228Y-87874448D01*
G37*
G36*
X130290285Y-85043060D02*
G01*
X130471397Y-85118079D01*
X130634393Y-85226990D01*
X130773010Y-85365607D01*
X130881921Y-85528603D01*
X130956940Y-85709715D01*
X130995185Y-85901983D01*
X130995185Y-86098017D01*
X130956940Y-86290285D01*
X130881921Y-86471397D01*
X130773010Y-86634393D01*
X130634393Y-86773010D01*
X130471397Y-86881921D01*
X130290285Y-86956940D01*
X130098017Y-86995185D01*
X129901983Y-86995185D01*
X129709715Y-86956940D01*
X129528603Y-86881921D01*
X129365607Y-86773010D01*
X129226990Y-86634393D01*
X129118079Y-86471397D01*
X129043060Y-86290285D01*
X129004815Y-86098017D01*
X129004815Y-85901983D01*
X129043060Y-85709715D01*
X129118079Y-85528603D01*
X129226990Y-85365607D01*
X129365607Y-85226990D01*
X129528603Y-85118079D01*
X129709715Y-85043060D01*
X129901983Y-85004815D01*
X130098017Y-85004815D01*
X130290285Y-85043060D01*
G37*
G36*
X136790285Y-85043060D02*
G01*
X136971397Y-85118079D01*
X137134393Y-85226990D01*
X137273010Y-85365607D01*
X137381921Y-85528603D01*
X137456940Y-85709715D01*
X137495185Y-85901983D01*
X137495185Y-86098017D01*
X137456940Y-86290285D01*
X137381921Y-86471397D01*
X137273010Y-86634393D01*
X137134393Y-86773010D01*
X136971397Y-86881921D01*
X136790285Y-86956940D01*
X136598017Y-86995185D01*
X136401983Y-86995185D01*
X136209715Y-86956940D01*
X136028603Y-86881921D01*
X135865607Y-86773010D01*
X135726990Y-86634393D01*
X135618079Y-86471397D01*
X135543060Y-86290285D01*
X135504815Y-86098017D01*
X135504815Y-85901983D01*
X135543060Y-85709715D01*
X135618079Y-85528603D01*
X135726990Y-85365607D01*
X135865607Y-85226990D01*
X136028603Y-85118079D01*
X136209715Y-85043060D01*
X136401983Y-85004815D01*
X136598017Y-85004815D01*
X136790285Y-85043060D01*
G37*
G36*
X91732228Y-85334448D02*
G01*
X91877117Y-85394463D01*
X92007515Y-85481592D01*
X92118408Y-85592485D01*
X92205537Y-85722883D01*
X92265552Y-85867772D01*
X92296148Y-86021586D01*
X92296148Y-86178414D01*
X92265552Y-86332228D01*
X92205537Y-86477117D01*
X92118408Y-86607515D01*
X92007515Y-86718408D01*
X91877117Y-86805537D01*
X91732228Y-86865552D01*
X91578414Y-86896148D01*
X91421586Y-86896148D01*
X91267772Y-86865552D01*
X91122883Y-86805537D01*
X90992485Y-86718408D01*
X90881592Y-86607515D01*
X90794463Y-86477117D01*
X90734448Y-86332228D01*
X90703852Y-86178414D01*
X90703852Y-86021586D01*
X90734448Y-85867772D01*
X90794463Y-85722883D01*
X90881592Y-85592485D01*
X90992485Y-85481592D01*
X91122883Y-85394463D01*
X91267772Y-85334448D01*
X91421586Y-85303852D01*
X91578414Y-85303852D01*
X91732228Y-85334448D01*
G37*
G36*
X106972228Y-85334448D02*
G01*
X107117117Y-85394463D01*
X107247515Y-85481592D01*
X107358408Y-85592485D01*
X107445537Y-85722883D01*
X107505552Y-85867772D01*
X107536148Y-86021586D01*
X107536148Y-86178414D01*
X107505552Y-86332228D01*
X107445537Y-86477117D01*
X107358408Y-86607515D01*
X107247515Y-86718408D01*
X107117117Y-86805537D01*
X106972228Y-86865552D01*
X106818414Y-86896148D01*
X106661586Y-86896148D01*
X106507772Y-86865552D01*
X106362883Y-86805537D01*
X106232485Y-86718408D01*
X106121592Y-86607515D01*
X106034463Y-86477117D01*
X105974448Y-86332228D01*
X105943852Y-86178414D01*
X105943852Y-86021586D01*
X105974448Y-85867772D01*
X106034463Y-85722883D01*
X106121592Y-85592485D01*
X106232485Y-85481592D01*
X106362883Y-85394463D01*
X106507772Y-85334448D01*
X106661586Y-85303852D01*
X106818414Y-85303852D01*
X106972228Y-85334448D01*
G37*
G36*
X122232228Y-84734448D02*
G01*
X122377117Y-84794463D01*
X122507515Y-84881592D01*
X122618408Y-84992485D01*
X122705537Y-85122883D01*
X122765552Y-85267772D01*
X122796148Y-85421586D01*
X122796148Y-85578414D01*
X122765552Y-85732228D01*
X122705537Y-85877117D01*
X122618408Y-86007515D01*
X122507515Y-86118408D01*
X122377117Y-86205537D01*
X122232228Y-86265552D01*
X122078414Y-86296148D01*
X121921586Y-86296148D01*
X121767772Y-86265552D01*
X121622883Y-86205537D01*
X121492485Y-86118408D01*
X121381592Y-86007515D01*
X121294463Y-85877117D01*
X121234448Y-85732228D01*
X121203852Y-85578414D01*
X121203852Y-85421586D01*
X121234448Y-85267772D01*
X121294463Y-85122883D01*
X121381592Y-84992485D01*
X121492485Y-84881592D01*
X121622883Y-84794463D01*
X121767772Y-84734448D01*
X121921586Y-84703852D01*
X122078414Y-84703852D01*
X122232228Y-84734448D01*
G37*
G36*
X91732228Y-82794448D02*
G01*
X91877117Y-82854463D01*
X92007515Y-82941592D01*
X92118408Y-83052485D01*
X92205537Y-83182883D01*
X92265552Y-83327772D01*
X92296148Y-83481586D01*
X92296148Y-83638414D01*
X92265552Y-83792228D01*
X92205537Y-83937117D01*
X92118408Y-84067515D01*
X92007515Y-84178408D01*
X91877117Y-84265537D01*
X91732228Y-84325552D01*
X91578414Y-84356148D01*
X91421586Y-84356148D01*
X91267772Y-84325552D01*
X91122883Y-84265537D01*
X90992485Y-84178408D01*
X90881592Y-84067515D01*
X90794463Y-83937117D01*
X90734448Y-83792228D01*
X90703852Y-83638414D01*
X90703852Y-83481586D01*
X90734448Y-83327772D01*
X90794463Y-83182883D01*
X90881592Y-83052485D01*
X90992485Y-82941592D01*
X91122883Y-82854463D01*
X91267772Y-82794448D01*
X91421586Y-82763852D01*
X91578414Y-82763852D01*
X91732228Y-82794448D01*
G37*
G36*
X106972228Y-82794448D02*
G01*
X107117117Y-82854463D01*
X107247515Y-82941592D01*
X107358408Y-83052485D01*
X107445537Y-83182883D01*
X107505552Y-83327772D01*
X107536148Y-83481586D01*
X107536148Y-83638414D01*
X107505552Y-83792228D01*
X107445537Y-83937117D01*
X107358408Y-84067515D01*
X107247515Y-84178408D01*
X107117117Y-84265537D01*
X106972228Y-84325552D01*
X106818414Y-84356148D01*
X106661586Y-84356148D01*
X106507772Y-84325552D01*
X106362883Y-84265537D01*
X106232485Y-84178408D01*
X106121592Y-84067515D01*
X106034463Y-83937117D01*
X105974448Y-83792228D01*
X105943852Y-83638414D01*
X105943852Y-83481586D01*
X105974448Y-83327772D01*
X106034463Y-83182883D01*
X106121592Y-83052485D01*
X106232485Y-82941592D01*
X106362883Y-82854463D01*
X106507772Y-82794448D01*
X106661586Y-82763852D01*
X106818414Y-82763852D01*
X106972228Y-82794448D01*
G37*
G36*
X116203199Y-82710142D02*
G01*
X116329978Y-82762655D01*
X116444075Y-82838893D01*
X116541107Y-82935925D01*
X116617345Y-83050022D01*
X116669858Y-83176801D01*
X116696629Y-83311388D01*
X116696629Y-83448612D01*
X116669858Y-83583199D01*
X116617345Y-83709978D01*
X116541107Y-83824075D01*
X116444075Y-83921107D01*
X116329978Y-83997345D01*
X116203199Y-84049858D01*
X116068612Y-84076629D01*
X115931388Y-84076629D01*
X115796801Y-84049858D01*
X115670022Y-83997345D01*
X115555925Y-83921107D01*
X115458893Y-83824075D01*
X115382655Y-83709978D01*
X115330142Y-83583199D01*
X115303371Y-83448612D01*
X115303371Y-83311388D01*
X115330142Y-83176801D01*
X115382655Y-83050022D01*
X115458893Y-82935925D01*
X115555925Y-82838893D01*
X115670022Y-82762655D01*
X115796801Y-82710142D01*
X115931388Y-82683371D01*
X116068612Y-82683371D01*
X116203199Y-82710142D01*
G37*
G36*
X91732228Y-80254448D02*
G01*
X91877117Y-80314463D01*
X92007515Y-80401592D01*
X92118408Y-80512485D01*
X92205537Y-80642883D01*
X92265552Y-80787772D01*
X92296148Y-80941586D01*
X92296148Y-81098414D01*
X92265552Y-81252228D01*
X92205537Y-81397117D01*
X92118408Y-81527515D01*
X92007515Y-81638408D01*
X91877117Y-81725537D01*
X91732228Y-81785552D01*
X91578414Y-81816148D01*
X91421586Y-81816148D01*
X91267772Y-81785552D01*
X91122883Y-81725537D01*
X90992485Y-81638408D01*
X90881592Y-81527515D01*
X90794463Y-81397117D01*
X90734448Y-81252228D01*
X90703852Y-81098414D01*
X90703852Y-80941586D01*
X90734448Y-80787772D01*
X90794463Y-80642883D01*
X90881592Y-80512485D01*
X90992485Y-80401592D01*
X91122883Y-80314463D01*
X91267772Y-80254448D01*
X91421586Y-80223852D01*
X91578414Y-80223852D01*
X91732228Y-80254448D01*
G37*
G36*
X106972228Y-80254448D02*
G01*
X107117117Y-80314463D01*
X107247515Y-80401592D01*
X107358408Y-80512485D01*
X107445537Y-80642883D01*
X107505552Y-80787772D01*
X107536148Y-80941586D01*
X107536148Y-81098414D01*
X107505552Y-81252228D01*
X107445537Y-81397117D01*
X107358408Y-81527515D01*
X107247515Y-81638408D01*
X107117117Y-81725537D01*
X106972228Y-81785552D01*
X106818414Y-81816148D01*
X106661586Y-81816148D01*
X106507772Y-81785552D01*
X106362883Y-81725537D01*
X106232485Y-81638408D01*
X106121592Y-81527515D01*
X106034463Y-81397117D01*
X105974448Y-81252228D01*
X105943852Y-81098414D01*
X105943852Y-80941586D01*
X105974448Y-80787772D01*
X106034463Y-80642883D01*
X106121592Y-80512485D01*
X106232485Y-80401592D01*
X106362883Y-80314463D01*
X106507772Y-80254448D01*
X106661586Y-80223852D01*
X106818414Y-80223852D01*
X106972228Y-80254448D01*
G37*
G36*
X112106687Y-77949056D02*
G01*
X112116918Y-77949056D01*
X112156893Y-77957007D01*
X112259074Y-77973191D01*
X112291943Y-77983870D01*
X112318799Y-77989213D01*
X112356700Y-78004912D01*
X112415741Y-78024096D01*
X112471052Y-78052278D01*
X112508967Y-78067983D01*
X112531742Y-78083201D01*
X112562528Y-78098887D01*
X112646217Y-78159690D01*
X112680113Y-78182339D01*
X112687347Y-78189573D01*
X112695798Y-78195713D01*
X112812286Y-78312201D01*
X112818425Y-78320651D01*
X112825661Y-78327887D01*
X112848312Y-78361787D01*
X112909112Y-78445471D01*
X112924796Y-78476254D01*
X112940017Y-78499033D01*
X112955723Y-78536952D01*
X112983903Y-78592258D01*
X113003084Y-78651292D01*
X113018787Y-78689201D01*
X113024130Y-78716062D01*
X113034808Y-78748925D01*
X113050990Y-78851098D01*
X113058944Y-78891082D01*
X113058944Y-78901313D01*
X113060578Y-78911630D01*
X113060578Y-79076369D01*
X113058944Y-79086685D01*
X113058944Y-79096918D01*
X113050990Y-79136905D01*
X113034808Y-79239074D01*
X113024130Y-79271935D01*
X113018787Y-79298799D01*
X113003083Y-79336711D01*
X112983903Y-79395741D01*
X112955726Y-79451041D01*
X112940017Y-79488967D01*
X112924794Y-79511749D01*
X112909112Y-79542528D01*
X112848320Y-79626200D01*
X112825661Y-79660113D01*
X112818423Y-79667350D01*
X112812286Y-79675798D01*
X112695798Y-79792286D01*
X112687350Y-79798423D01*
X112680113Y-79805661D01*
X112646200Y-79828320D01*
X112562528Y-79889112D01*
X112531749Y-79904794D01*
X112508967Y-79920017D01*
X112471041Y-79935726D01*
X112415741Y-79963903D01*
X112356711Y-79983083D01*
X112318799Y-79998787D01*
X112291935Y-80004130D01*
X112259074Y-80014808D01*
X112156902Y-80030990D01*
X112116918Y-80038944D01*
X112106687Y-80038944D01*
X112096370Y-80040578D01*
X111931630Y-80040578D01*
X111921313Y-80038944D01*
X111911082Y-80038944D01*
X111871098Y-80030990D01*
X111768925Y-80014808D01*
X111736062Y-80004130D01*
X111709201Y-79998787D01*
X111671292Y-79983084D01*
X111612258Y-79963903D01*
X111556952Y-79935723D01*
X111519033Y-79920017D01*
X111496254Y-79904796D01*
X111465471Y-79889112D01*
X111381787Y-79828312D01*
X111347887Y-79805661D01*
X111340651Y-79798425D01*
X111332201Y-79792286D01*
X111215713Y-79675798D01*
X111209573Y-79667347D01*
X111202339Y-79660113D01*
X111179690Y-79626217D01*
X111118887Y-79542528D01*
X111103201Y-79511742D01*
X111087983Y-79488967D01*
X111072278Y-79451052D01*
X111044096Y-79395741D01*
X111024912Y-79336700D01*
X111009213Y-79298799D01*
X111003870Y-79271943D01*
X110993191Y-79239074D01*
X110977008Y-79136895D01*
X110969056Y-79096918D01*
X110969056Y-79086686D01*
X110967422Y-79076369D01*
X110967422Y-78911630D01*
X110969056Y-78901312D01*
X110969056Y-78891082D01*
X110977007Y-78851108D01*
X110993191Y-78748925D01*
X111003871Y-78716054D01*
X111009213Y-78689201D01*
X111024910Y-78651303D01*
X111044096Y-78592258D01*
X111072280Y-78536942D01*
X111087983Y-78499033D01*
X111103199Y-78476260D01*
X111118887Y-78445471D01*
X111179699Y-78361770D01*
X111202339Y-78327887D01*
X111209570Y-78320655D01*
X111215713Y-78312201D01*
X111332201Y-78195713D01*
X111340655Y-78189570D01*
X111347887Y-78182339D01*
X111381770Y-78159699D01*
X111465471Y-78098887D01*
X111496260Y-78083199D01*
X111519033Y-78067983D01*
X111556942Y-78052280D01*
X111612258Y-78024096D01*
X111671303Y-78004910D01*
X111709201Y-77989213D01*
X111736054Y-77983871D01*
X111768925Y-77973191D01*
X111871108Y-77957007D01*
X111911082Y-77949056D01*
X111921313Y-77949056D01*
X111931630Y-77947422D01*
X112096370Y-77947422D01*
X112106687Y-77949056D01*
G37*
G36*
X91732228Y-77714448D02*
G01*
X91877117Y-77774463D01*
X92007515Y-77861592D01*
X92118408Y-77972485D01*
X92205537Y-78102883D01*
X92265552Y-78247772D01*
X92296148Y-78401586D01*
X92296148Y-78558414D01*
X92265552Y-78712228D01*
X92205537Y-78857117D01*
X92118408Y-78987515D01*
X92007515Y-79098408D01*
X91877117Y-79185537D01*
X91732228Y-79245552D01*
X91578414Y-79276148D01*
X91421586Y-79276148D01*
X91267772Y-79245552D01*
X91122883Y-79185537D01*
X90992485Y-79098408D01*
X90881592Y-78987515D01*
X90794463Y-78857117D01*
X90734448Y-78712228D01*
X90703852Y-78558414D01*
X90703852Y-78401586D01*
X90734448Y-78247772D01*
X90794463Y-78102883D01*
X90881592Y-77972485D01*
X90992485Y-77861592D01*
X91122883Y-77774463D01*
X91267772Y-77714448D01*
X91421586Y-77683852D01*
X91578414Y-77683852D01*
X91732228Y-77714448D01*
G37*
G36*
X106972228Y-77714448D02*
G01*
X107117117Y-77774463D01*
X107247515Y-77861592D01*
X107358408Y-77972485D01*
X107445537Y-78102883D01*
X107505552Y-78247772D01*
X107536148Y-78401586D01*
X107536148Y-78558414D01*
X107505552Y-78712228D01*
X107445537Y-78857117D01*
X107358408Y-78987515D01*
X107247515Y-79098408D01*
X107117117Y-79185537D01*
X106972228Y-79245552D01*
X106818414Y-79276148D01*
X106661586Y-79276148D01*
X106507772Y-79245552D01*
X106362883Y-79185537D01*
X106232485Y-79098408D01*
X106121592Y-78987515D01*
X106034463Y-78857117D01*
X105974448Y-78712228D01*
X105943852Y-78558414D01*
X105943852Y-78401586D01*
X105974448Y-78247772D01*
X106034463Y-78102883D01*
X106121592Y-77972485D01*
X106232485Y-77861592D01*
X106362883Y-77774463D01*
X106507772Y-77714448D01*
X106661586Y-77683852D01*
X106818414Y-77683852D01*
X106972228Y-77714448D01*
G37*
G36*
X133615000Y-76846000D02*
G01*
X131815000Y-76846000D01*
X131815000Y-75046000D01*
X133615000Y-75046000D01*
X133615000Y-76846000D01*
G37*
G36*
X130436256Y-75084754D02*
G01*
X130599257Y-75152271D01*
X130745954Y-75250291D01*
X130870709Y-75375046D01*
X130968729Y-75521743D01*
X131036246Y-75684744D01*
X131070666Y-75857785D01*
X131070666Y-76034215D01*
X131036246Y-76207256D01*
X130968729Y-76370257D01*
X130870709Y-76516954D01*
X130745954Y-76641709D01*
X130599257Y-76739729D01*
X130436256Y-76807246D01*
X130263215Y-76841666D01*
X130086785Y-76841666D01*
X129913744Y-76807246D01*
X129750743Y-76739729D01*
X129604046Y-76641709D01*
X129479291Y-76516954D01*
X129381271Y-76370257D01*
X129313754Y-76207256D01*
X129279334Y-76034215D01*
X129279334Y-75857785D01*
X129313754Y-75684744D01*
X129381271Y-75521743D01*
X129479291Y-75375046D01*
X129604046Y-75250291D01*
X129750743Y-75152271D01*
X129913744Y-75084754D01*
X130086785Y-75050334D01*
X130263215Y-75050334D01*
X130436256Y-75084754D01*
G37*
G36*
X91732228Y-75174448D02*
G01*
X91877117Y-75234463D01*
X92007515Y-75321592D01*
X92118408Y-75432485D01*
X92205537Y-75562883D01*
X92265552Y-75707772D01*
X92296148Y-75861586D01*
X92296148Y-76018414D01*
X92265552Y-76172228D01*
X92205537Y-76317117D01*
X92118408Y-76447515D01*
X92007515Y-76558408D01*
X91877117Y-76645537D01*
X91732228Y-76705552D01*
X91578414Y-76736148D01*
X91421586Y-76736148D01*
X91267772Y-76705552D01*
X91122883Y-76645537D01*
X90992485Y-76558408D01*
X90881592Y-76447515D01*
X90794463Y-76317117D01*
X90734448Y-76172228D01*
X90703852Y-76018414D01*
X90703852Y-75861586D01*
X90734448Y-75707772D01*
X90794463Y-75562883D01*
X90881592Y-75432485D01*
X90992485Y-75321592D01*
X91122883Y-75234463D01*
X91267772Y-75174448D01*
X91421586Y-75143852D01*
X91578414Y-75143852D01*
X91732228Y-75174448D01*
G37*
G36*
X106972228Y-75174448D02*
G01*
X107117117Y-75234463D01*
X107247515Y-75321592D01*
X107358408Y-75432485D01*
X107445537Y-75562883D01*
X107505552Y-75707772D01*
X107536148Y-75861586D01*
X107536148Y-76018414D01*
X107505552Y-76172228D01*
X107445537Y-76317117D01*
X107358408Y-76447515D01*
X107247515Y-76558408D01*
X107117117Y-76645537D01*
X106972228Y-76705552D01*
X106818414Y-76736148D01*
X106661586Y-76736148D01*
X106507772Y-76705552D01*
X106362883Y-76645537D01*
X106232485Y-76558408D01*
X106121592Y-76447515D01*
X106034463Y-76317117D01*
X105974448Y-76172228D01*
X105943852Y-76018414D01*
X105943852Y-75861586D01*
X105974448Y-75707772D01*
X106034463Y-75562883D01*
X106121592Y-75432485D01*
X106232485Y-75321592D01*
X106362883Y-75234463D01*
X106507772Y-75174448D01*
X106661586Y-75143852D01*
X106818414Y-75143852D01*
X106972228Y-75174448D01*
G37*
G36*
X116083199Y-73830142D02*
G01*
X116209978Y-73882655D01*
X116324075Y-73958893D01*
X116421107Y-74055925D01*
X116497345Y-74170022D01*
X116549858Y-74296801D01*
X116576629Y-74431388D01*
X116576629Y-74568612D01*
X116549858Y-74703199D01*
X116497345Y-74829978D01*
X116421107Y-74944075D01*
X116324075Y-75041107D01*
X116209978Y-75117345D01*
X116083199Y-75169858D01*
X115948612Y-75196629D01*
X115811388Y-75196629D01*
X115676801Y-75169858D01*
X115550022Y-75117345D01*
X115435925Y-75041107D01*
X115338893Y-74944075D01*
X115262655Y-74829978D01*
X115210142Y-74703199D01*
X115183371Y-74568612D01*
X115183371Y-74431388D01*
X115210142Y-74296801D01*
X115262655Y-74170022D01*
X115338893Y-74055925D01*
X115435925Y-73958893D01*
X115550022Y-73882655D01*
X115676801Y-73830142D01*
X115811388Y-73803371D01*
X115948612Y-73803371D01*
X116083199Y-73830142D01*
G37*
G36*
X123703199Y-73830142D02*
G01*
X123829978Y-73882655D01*
X123944075Y-73958893D01*
X124041107Y-74055925D01*
X124117345Y-74170022D01*
X124169858Y-74296801D01*
X124196629Y-74431388D01*
X124196629Y-74568612D01*
X124169858Y-74703199D01*
X124117345Y-74829978D01*
X124041107Y-74944075D01*
X123944075Y-75041107D01*
X123829978Y-75117345D01*
X123703199Y-75169858D01*
X123568612Y-75196629D01*
X123431388Y-75196629D01*
X123296801Y-75169858D01*
X123170022Y-75117345D01*
X123055925Y-75041107D01*
X122958893Y-74944075D01*
X122882655Y-74829978D01*
X122830142Y-74703199D01*
X122803371Y-74568612D01*
X122803371Y-74431388D01*
X122830142Y-74296801D01*
X122882655Y-74170022D01*
X122958893Y-74055925D01*
X123055925Y-73958893D01*
X123170022Y-73882655D01*
X123296801Y-73830142D01*
X123431388Y-73803371D01*
X123568612Y-73803371D01*
X123703199Y-73830142D01*
G37*
G36*
X72018401Y-72277501D02*
G01*
X72080204Y-72318796D01*
X72121499Y-72380599D01*
X72136000Y-72453500D01*
X72136000Y-73342500D01*
X72121499Y-73415401D01*
X72080204Y-73477204D01*
X72018401Y-73518499D01*
X71945500Y-73533000D01*
X71056500Y-73533000D01*
X70983599Y-73518499D01*
X70921796Y-73477204D01*
X70880501Y-73415401D01*
X70866000Y-73342500D01*
X70866000Y-72453500D01*
X70880501Y-72380599D01*
X70921796Y-72318796D01*
X70983599Y-72277501D01*
X71056500Y-72263000D01*
X71945500Y-72263000D01*
X72018401Y-72277501D01*
G37*
G36*
X75320401Y-72277501D02*
G01*
X75382204Y-72318796D01*
X75423499Y-72380599D01*
X75438000Y-72453500D01*
X75438000Y-73342500D01*
X75423499Y-73415401D01*
X75382204Y-73477204D01*
X75320401Y-73518499D01*
X75247500Y-73533000D01*
X74358500Y-73533000D01*
X74285599Y-73518499D01*
X74223796Y-73477204D01*
X74182501Y-73415401D01*
X74168000Y-73342500D01*
X74168000Y-72453500D01*
X74182501Y-72380599D01*
X74223796Y-72318796D01*
X74285599Y-72277501D01*
X74358500Y-72263000D01*
X75247500Y-72263000D01*
X75320401Y-72277501D01*
G37*
G36*
X79130401Y-72277501D02*
G01*
X79192204Y-72318796D01*
X79233499Y-72380599D01*
X79248000Y-72453500D01*
X79248000Y-73342500D01*
X79233499Y-73415401D01*
X79192204Y-73477204D01*
X79130401Y-73518499D01*
X79057500Y-73533000D01*
X78168500Y-73533000D01*
X78095599Y-73518499D01*
X78033796Y-73477204D01*
X77992501Y-73415401D01*
X77978000Y-73342500D01*
X77978000Y-72453500D01*
X77992501Y-72380599D01*
X78033796Y-72318796D01*
X78095599Y-72277501D01*
X78168500Y-72263000D01*
X79057500Y-72263000D01*
X79130401Y-72277501D01*
G37*
G36*
X82940401Y-72277501D02*
G01*
X83002204Y-72318796D01*
X83043499Y-72380599D01*
X83058000Y-72453500D01*
X83058000Y-73342500D01*
X83043499Y-73415401D01*
X83002204Y-73477204D01*
X82940401Y-73518499D01*
X82867500Y-73533000D01*
X81978500Y-73533000D01*
X81905599Y-73518499D01*
X81843796Y-73477204D01*
X81802501Y-73415401D01*
X81788000Y-73342500D01*
X81788000Y-72453500D01*
X81802501Y-72380599D01*
X81843796Y-72318796D01*
X81905599Y-72277501D01*
X81978500Y-72263000D01*
X82867500Y-72263000D01*
X82940401Y-72277501D01*
G37*
G36*
X124425687Y-68297056D02*
G01*
X124435918Y-68297056D01*
X124475893Y-68305007D01*
X124578074Y-68321191D01*
X124610943Y-68331870D01*
X124637799Y-68337213D01*
X124675700Y-68352912D01*
X124734741Y-68372096D01*
X124790052Y-68400278D01*
X124827967Y-68415983D01*
X124850742Y-68431201D01*
X124881528Y-68446887D01*
X124965217Y-68507690D01*
X124999113Y-68530339D01*
X125006347Y-68537573D01*
X125014798Y-68543713D01*
X125131286Y-68660201D01*
X125137425Y-68668651D01*
X125144661Y-68675887D01*
X125167312Y-68709787D01*
X125228112Y-68793471D01*
X125243796Y-68824254D01*
X125259017Y-68847033D01*
X125274723Y-68884952D01*
X125302903Y-68940258D01*
X125322084Y-68999292D01*
X125337787Y-69037201D01*
X125343130Y-69064062D01*
X125353808Y-69096925D01*
X125369990Y-69199098D01*
X125377944Y-69239082D01*
X125377944Y-69249313D01*
X125379578Y-69259630D01*
X125379578Y-69424369D01*
X125377944Y-69434685D01*
X125377944Y-69444918D01*
X125369990Y-69484905D01*
X125353808Y-69587074D01*
X125343130Y-69619935D01*
X125337787Y-69646799D01*
X125322083Y-69684711D01*
X125302903Y-69743741D01*
X125274726Y-69799041D01*
X125259017Y-69836967D01*
X125243794Y-69859749D01*
X125228112Y-69890528D01*
X125167320Y-69974200D01*
X125144661Y-70008113D01*
X125137423Y-70015350D01*
X125131286Y-70023798D01*
X125014798Y-70140286D01*
X125006350Y-70146423D01*
X124999113Y-70153661D01*
X124965200Y-70176320D01*
X124881528Y-70237112D01*
X124850749Y-70252794D01*
X124827967Y-70268017D01*
X124790041Y-70283726D01*
X124734741Y-70311903D01*
X124675711Y-70331083D01*
X124637799Y-70346787D01*
X124610935Y-70352130D01*
X124578074Y-70362808D01*
X124475902Y-70378990D01*
X124435918Y-70386944D01*
X124425687Y-70386944D01*
X124415370Y-70388578D01*
X124250630Y-70388578D01*
X124240313Y-70386944D01*
X124230082Y-70386944D01*
X124190098Y-70378990D01*
X124087925Y-70362808D01*
X124055062Y-70352130D01*
X124028201Y-70346787D01*
X123990292Y-70331084D01*
X123931258Y-70311903D01*
X123875952Y-70283723D01*
X123838033Y-70268017D01*
X123815254Y-70252796D01*
X123784471Y-70237112D01*
X123700787Y-70176312D01*
X123666887Y-70153661D01*
X123659651Y-70146425D01*
X123651201Y-70140286D01*
X123534713Y-70023798D01*
X123528573Y-70015347D01*
X123521339Y-70008113D01*
X123498690Y-69974217D01*
X123437887Y-69890528D01*
X123422201Y-69859742D01*
X123406983Y-69836967D01*
X123391278Y-69799052D01*
X123363096Y-69743741D01*
X123343912Y-69684700D01*
X123328213Y-69646799D01*
X123322870Y-69619943D01*
X123312191Y-69587074D01*
X123296008Y-69484895D01*
X123288056Y-69444918D01*
X123288056Y-69434686D01*
X123286422Y-69424369D01*
X123286422Y-69259630D01*
X123288056Y-69249312D01*
X123288056Y-69239082D01*
X123296007Y-69199108D01*
X123312191Y-69096925D01*
X123322871Y-69064054D01*
X123328213Y-69037201D01*
X123343910Y-68999303D01*
X123363096Y-68940258D01*
X123391280Y-68884942D01*
X123406983Y-68847033D01*
X123422199Y-68824260D01*
X123437887Y-68793471D01*
X123498699Y-68709770D01*
X123521339Y-68675887D01*
X123528570Y-68668655D01*
X123534713Y-68660201D01*
X123651201Y-68543713D01*
X123659655Y-68537570D01*
X123666887Y-68530339D01*
X123700770Y-68507699D01*
X123784471Y-68446887D01*
X123815260Y-68431199D01*
X123838033Y-68415983D01*
X123875942Y-68400280D01*
X123931258Y-68372096D01*
X123990303Y-68352910D01*
X124028201Y-68337213D01*
X124055054Y-68331871D01*
X124087925Y-68321191D01*
X124190108Y-68305007D01*
X124230082Y-68297056D01*
X124240313Y-68297056D01*
X124250630Y-68295422D01*
X124415370Y-68295422D01*
X124425687Y-68297056D01*
G37*
G36*
X136617687Y-68170056D02*
G01*
X136627918Y-68170056D01*
X136667893Y-68178007D01*
X136770074Y-68194191D01*
X136802943Y-68204870D01*
X136829799Y-68210213D01*
X136867700Y-68225912D01*
X136926741Y-68245096D01*
X136982052Y-68273278D01*
X137019967Y-68288983D01*
X137042742Y-68304201D01*
X137073528Y-68319887D01*
X137157217Y-68380690D01*
X137191113Y-68403339D01*
X137198347Y-68410573D01*
X137206798Y-68416713D01*
X137323286Y-68533201D01*
X137329425Y-68541651D01*
X137336661Y-68548887D01*
X137359312Y-68582787D01*
X137420112Y-68666471D01*
X137435796Y-68697254D01*
X137451017Y-68720033D01*
X137466723Y-68757952D01*
X137494903Y-68813258D01*
X137514084Y-68872292D01*
X137529787Y-68910201D01*
X137535130Y-68937062D01*
X137545808Y-68969925D01*
X137561990Y-69072098D01*
X137569944Y-69112082D01*
X137569944Y-69122313D01*
X137571578Y-69132630D01*
X137571578Y-69297369D01*
X137569944Y-69307685D01*
X137569944Y-69317918D01*
X137561990Y-69357905D01*
X137545808Y-69460074D01*
X137535130Y-69492935D01*
X137529787Y-69519799D01*
X137514083Y-69557711D01*
X137494903Y-69616741D01*
X137466726Y-69672041D01*
X137451017Y-69709967D01*
X137435794Y-69732749D01*
X137420112Y-69763528D01*
X137359320Y-69847200D01*
X137336661Y-69881113D01*
X137329423Y-69888350D01*
X137323286Y-69896798D01*
X137206798Y-70013286D01*
X137198350Y-70019423D01*
X137191113Y-70026661D01*
X137157200Y-70049320D01*
X137073528Y-70110112D01*
X137042749Y-70125794D01*
X137019967Y-70141017D01*
X136982041Y-70156726D01*
X136926741Y-70184903D01*
X136867711Y-70204083D01*
X136829799Y-70219787D01*
X136802935Y-70225130D01*
X136770074Y-70235808D01*
X136667902Y-70251990D01*
X136627918Y-70259944D01*
X136617687Y-70259944D01*
X136607370Y-70261578D01*
X136442630Y-70261578D01*
X136432313Y-70259944D01*
X136422082Y-70259944D01*
X136382098Y-70251990D01*
X136279925Y-70235808D01*
X136247062Y-70225130D01*
X136220201Y-70219787D01*
X136182292Y-70204084D01*
X136123258Y-70184903D01*
X136067952Y-70156723D01*
X136030033Y-70141017D01*
X136007254Y-70125796D01*
X135976471Y-70110112D01*
X135892787Y-70049312D01*
X135858887Y-70026661D01*
X135851651Y-70019425D01*
X135843201Y-70013286D01*
X135726713Y-69896798D01*
X135720573Y-69888347D01*
X135713339Y-69881113D01*
X135690690Y-69847217D01*
X135629887Y-69763528D01*
X135614201Y-69732742D01*
X135598983Y-69709967D01*
X135583278Y-69672052D01*
X135555096Y-69616741D01*
X135535912Y-69557700D01*
X135520213Y-69519799D01*
X135514870Y-69492943D01*
X135504191Y-69460074D01*
X135488008Y-69357895D01*
X135480056Y-69317918D01*
X135480056Y-69307686D01*
X135478422Y-69297369D01*
X135478422Y-69132630D01*
X135480056Y-69122312D01*
X135480056Y-69112082D01*
X135488007Y-69072108D01*
X135504191Y-68969925D01*
X135514871Y-68937054D01*
X135520213Y-68910201D01*
X135535910Y-68872303D01*
X135555096Y-68813258D01*
X135583280Y-68757942D01*
X135598983Y-68720033D01*
X135614199Y-68697260D01*
X135629887Y-68666471D01*
X135690699Y-68582770D01*
X135713339Y-68548887D01*
X135720570Y-68541655D01*
X135726713Y-68533201D01*
X135843201Y-68416713D01*
X135851655Y-68410570D01*
X135858887Y-68403339D01*
X135892770Y-68380699D01*
X135976471Y-68319887D01*
X136007260Y-68304199D01*
X136030033Y-68288983D01*
X136067942Y-68273280D01*
X136123258Y-68245096D01*
X136182303Y-68225910D01*
X136220201Y-68210213D01*
X136247054Y-68204871D01*
X136279925Y-68194191D01*
X136382108Y-68178007D01*
X136422082Y-68170056D01*
X136432313Y-68170056D01*
X136442630Y-68168422D01*
X136607370Y-68168422D01*
X136617687Y-68170056D01*
G37*
M02*
